<svg width="493" height="61" viewBox="0 0 493 61" fill="none" xmlns="http://www.w3.org/2000/svg">
<path d="M33.7611 39H14.2611L10.5411 48H0.581094L19.3011 6H28.9011L47.6811 48H37.4811L33.7611 39ZM30.7011 31.62L24.0411 15.54L17.3811 31.62H30.7011ZM84.3856 15.72V42.6C84.3856 48.52 82.8456 52.92 79.7656 55.8C76.6856 58.68 72.1856 60.12 66.2656 60.12C63.1456 60.12 60.1856 59.74 57.3856 58.98C54.5856 58.22 52.2656 57.12 50.4256 55.68L54.1456 48.96C55.5056 50.08 57.2256 50.96 59.3056 51.6C61.3856 52.28 63.4656 52.62 65.5456 52.62C68.7856 52.62 71.1656 51.88 72.6856 50.4C74.2456 48.96 75.0256 46.76 75.0256 43.8V42.42C72.5856 45.1 69.1856 46.44 64.8256 46.44C61.8656 46.44 59.1456 45.8 56.6656 44.52C54.2256 43.2 52.2856 41.36 50.8456 39C49.4056 36.64 48.6856 33.92 48.6856 30.84C48.6856 27.76 49.4056 25.04 50.8456 22.68C52.2856 20.32 54.2256 18.5 56.6656 17.22C59.1456 15.9 61.8656 15.24 64.8256 15.24C69.5056 15.24 73.0656 16.78 75.5056 19.86V15.72H84.3856ZM66.6856 38.76C69.1656 38.76 71.1856 38.04 72.7456 36.6C74.3456 35.12 75.1456 33.2 75.1456 30.84C75.1456 28.48 74.3456 26.58 72.7456 25.14C71.1856 23.66 69.1656 22.92 66.6856 22.92C64.2056 22.92 62.1656 23.66 60.5656 25.14C58.9656 26.58 58.1656 28.48 58.1656 30.84C58.1656 33.2 58.9656 35.12 60.5656 36.6C62.1656 38.04 64.2056 38.76 66.6856 38.76ZM124.717 31.98C124.717 32.1 124.657 32.94 124.537 34.5H100.117C100.557 36.5 101.597 38.08 103.237 39.24C104.877 40.4 106.917 40.98 109.357 40.98C111.037 40.98 112.517 40.74 113.797 40.26C115.117 39.74 116.337 38.94 117.457 37.86L122.437 43.26C119.397 46.74 114.957 48.48 109.117 48.48C105.477 48.48 102.257 47.78 99.4573 46.38C96.6573 44.94 94.4973 42.96 92.9773 40.44C91.4573 37.92 90.6973 35.06 90.6973 31.86C90.6973 28.7 91.4373 25.86 92.9173 23.34C94.4373 20.78 96.4973 18.8 99.0973 17.4C101.737 15.96 104.677 15.24 107.917 15.24C111.077 15.24 113.937 15.92 116.497 17.28C119.057 18.64 121.057 20.6 122.497 23.16C123.977 25.68 124.717 28.62 124.717 31.98ZM107.977 22.32C105.857 22.32 104.077 22.92 102.637 24.12C101.197 25.32 100.317 26.96 99.9973 29.04H115.897C115.577 27 114.697 25.38 113.257 24.18C111.817 22.94 110.057 22.32 107.977 22.32ZM150.569 15.24C154.569 15.24 157.789 16.44 160.229 18.84C162.709 21.24 163.949 24.8 163.949 29.52V48H154.589V30.96C154.589 28.4 154.029 26.5 152.909 25.26C151.789 23.98 150.169 23.34 148.049 23.34C145.689 23.34 143.809 24.08 142.409 25.56C141.009 27 140.309 29.16 140.309 32.04V48H130.949V15.72H139.889V19.5C141.129 18.14 142.669 17.1 144.509 16.38C146.349 15.62 148.369 15.24 150.569 15.24ZM205.665 3.48V48H196.725V44.28C194.405 47.08 191.045 48.48 186.645 48.48C183.605 48.48 180.845 47.8 178.365 46.44C175.925 45.08 174.005 43.14 172.605 40.62C171.205 38.1 170.505 35.18 170.505 31.86C170.505 28.54 171.205 25.62 172.605 23.1C174.005 20.58 175.925 18.64 178.365 17.28C180.845 15.92 183.605 15.24 186.645 15.24C190.765 15.24 193.985 16.54 196.305 19.14V3.48H205.665ZM188.265 40.8C190.625 40.8 192.585 40 194.145 38.4C195.705 36.76 196.485 34.58 196.485 31.86C196.485 29.14 195.705 26.98 194.145 25.38C192.585 23.74 190.625 22.92 188.265 22.92C185.865 22.92 183.885 23.74 182.325 25.38C180.765 26.98 179.985 29.14 179.985 31.86C179.985 34.58 180.765 36.76 182.325 38.4C183.885 40 185.865 40.8 188.265 40.8ZM227.348 15.24C232.348 15.24 236.188 16.44 238.868 18.84C241.548 21.2 242.888 24.78 242.888 29.58V48H234.128V43.98C232.368 46.98 229.088 48.48 224.288 48.48C221.808 48.48 219.648 48.06 217.808 47.22C216.008 46.38 214.628 45.22 213.668 43.74C212.708 42.26 212.228 40.58 212.228 38.7C212.228 35.7 213.348 33.34 215.588 31.62C217.868 29.9 221.368 29.04 226.088 29.04H233.528C233.528 27 232.908 25.44 231.668 24.36C230.428 23.24 228.568 22.68 226.088 22.68C224.368 22.68 222.668 22.96 220.988 23.52C219.348 24.04 217.948 24.76 216.788 25.68L213.428 19.14C215.188 17.9 217.288 16.94 219.728 16.26C222.208 15.58 224.748 15.24 227.348 15.24ZM226.628 42.18C228.228 42.18 229.648 41.82 230.888 41.1C232.128 40.34 233.008 39.24 233.528 37.8V34.5H227.108C223.268 34.5 221.348 35.76 221.348 38.28C221.348 39.48 221.808 40.44 222.728 41.16C223.688 41.84 224.988 42.18 226.628 42.18ZM269.011 6H278.731V40.08H299.791V48H269.011V6ZM317.934 15.24C322.934 15.24 326.774 16.44 329.454 18.84C332.134 21.2 333.474 24.78 333.474 29.58V48H324.714V43.98C322.954 46.98 319.674 48.48 314.874 48.48C312.394 48.48 310.234 48.06 308.394 47.22C306.594 46.38 305.214 45.22 304.254 43.74C303.294 42.26 302.814 40.58 302.814 38.7C302.814 35.7 303.934 33.34 306.174 31.62C308.454 29.9 311.954 29.04 316.674 29.04H324.114C324.114 27 323.494 25.44 322.254 24.36C321.014 23.24 319.154 22.68 316.674 22.68C314.954 22.68 313.254 22.96 311.574 23.52C309.934 24.04 308.534 24.76 307.374 25.68L304.014 19.14C305.774 17.9 307.874 16.94 310.314 16.26C312.794 15.58 315.334 15.24 317.934 15.24ZM317.214 42.18C318.814 42.18 320.234 41.82 321.474 41.1C322.714 40.34 323.594 39.24 324.114 37.8V34.5H317.694C313.854 34.5 311.934 35.76 311.934 38.28C311.934 39.48 312.394 40.44 313.314 41.16C314.274 41.84 315.574 42.18 317.214 42.18ZM350.885 19.98C352.005 18.42 353.505 17.24 355.385 16.44C357.305 15.64 359.505 15.24 361.985 15.24V23.88C360.945 23.8 360.245 23.76 359.885 23.76C357.205 23.76 355.105 24.52 353.585 26.04C352.065 27.52 351.305 29.76 351.305 32.76V48H341.945V15.72H350.885V19.98ZM380.395 15.24C385.395 15.24 389.235 16.44 391.915 18.84C394.595 21.2 395.935 24.78 395.935 29.58V48H387.175V43.98C385.415 46.98 382.135 48.48 377.335 48.48C374.855 48.48 372.695 48.06 370.855 47.22C369.055 46.38 367.675 45.22 366.715 43.74C365.755 42.26 365.275 40.58 365.275 38.7C365.275 35.7 366.395 33.34 368.635 31.62C370.915 29.9 374.415 29.04 379.135 29.04H386.575C386.575 27 385.955 25.44 384.715 24.36C383.475 23.24 381.615 22.68 379.135 22.68C377.415 22.68 375.715 22.96 374.035 23.52C372.395 24.04 370.995 24.76 369.835 25.68L366.475 19.14C368.235 17.9 370.335 16.94 372.775 16.26C375.255 15.58 377.795 15.24 380.395 15.24ZM379.675 42.18C381.275 42.18 382.695 41.82 383.935 41.1C385.175 40.34 386.055 39.24 386.575 37.8V34.5H380.155C376.315 34.5 374.395 35.76 374.395 38.28C374.395 39.48 374.855 40.44 375.775 41.16C376.735 41.84 378.035 42.18 379.675 42.18ZM424.026 15.24C428.026 15.24 431.246 16.44 433.686 18.84C436.166 21.24 437.406 24.8 437.406 29.52V48H428.046V30.96C428.046 28.4 427.486 26.5 426.366 25.26C425.246 23.98 423.626 23.34 421.506 23.34C419.146 23.34 417.266 24.08 415.866 25.56C414.466 27 413.766 29.16 413.766 32.04V48H404.406V15.72H413.346V19.5C414.586 18.14 416.126 17.1 417.966 16.38C419.806 15.62 421.826 15.24 424.026 15.24ZM443.49 60.12C440.21 60.12 437.71 59.52 435.99 58.32L438.51 51.54C439.59 52.3 440.91 52.68 442.47 52.68C443.67 52.68 444.61 52.28 445.29 51.48C445.97 50.72 446.31 49.56 446.31 48V15.72H455.67V47.94C455.67 51.7 454.59 54.66 452.43 56.82C450.31 59.02 447.33 60.12 443.49 60.12ZM450.99 11.22C449.27 11.22 447.87 10.72 446.79 9.72C445.71 8.72 445.17 7.48 445.17 6C445.17 4.52 445.71 3.28 446.79 2.28C447.87 1.28 449.27 0.779996 450.99 0.779996C452.71 0.779996 454.11 1.26 455.19 2.22C456.27 3.18 456.81 4.38 456.81 5.82C456.81 7.38 456.27 8.68 455.19 9.72C454.11 10.72 452.71 11.22 450.99 11.22ZM477.309 15.24C482.309 15.24 486.149 16.44 488.829 18.84C491.509 21.2 492.849 24.78 492.849 29.58V48H484.089V43.98C482.329 46.98 479.049 48.48 474.249 48.48C471.769 48.48 469.609 48.06 467.769 47.22C465.969 46.38 464.589 45.22 463.629 43.74C462.669 42.26 462.189 40.58 462.189 38.7C462.189 35.7 463.309 33.34 465.549 31.62C467.829 29.9 471.329 29.04 476.049 29.04H483.489C483.489 27 482.869 25.44 481.629 24.36C480.389 23.24 478.529 22.68 476.049 22.68C474.329 22.68 472.629 22.96 470.949 23.52C469.309 24.04 467.909 24.76 466.749 25.68L463.389 19.14C465.149 17.9 467.249 16.94 469.689 16.26C472.169 15.58 474.709 15.24 477.309 15.24ZM476.589 42.18C478.189 42.18 479.609 41.82 480.849 41.1C482.089 40.34 482.969 39.24 483.489 37.8V34.5H477.069C473.229 34.5 471.309 35.76 471.309 38.28C471.309 39.48 471.769 40.44 472.689 41.16C473.649 41.84 474.949 42.18 476.589 42.18Z" fill="#FF601C"/>
</svg>
