<svg width="55" height="55" viewBox="0 0 55 55" fill="none" xmlns="http://www.w3.org/2000/svg">
<path fill-rule="evenodd" clip-rule="evenodd" d="M22.9166 4.58327C22.9171 4.10534 22.768 3.63923 22.4905 3.25018C22.2129 2.86113 21.8206 2.5686 21.3685 2.41353C20.9164 2.25846 20.4272 2.24861 19.9692 2.38536C19.5113 2.52211 19.1076 2.79862 18.8145 3.17618L2.77288 23.8012C2.45994 24.2035 2.29004 24.6986 2.29004 25.2083C2.29004 25.7179 2.45994 26.2131 2.77288 26.6154L18.8145 47.2404C19.1076 47.6179 19.5113 47.8944 19.9692 48.0312C20.4272 48.1679 20.9164 48.1581 21.3685 48.003C21.8206 47.8479 22.2129 47.5554 22.4905 47.1664C22.768 46.7773 22.9171 46.3112 22.9166 45.8333V36.6895C35.2435 36.9462 41.1652 39.286 44.1398 41.8297C46.9677 44.2474 47.4856 47.0914 48.0241 50.0706L48.1639 50.8383C48.2668 51.3876 48.5668 51.8804 49.0076 52.224C49.4484 52.5676 49.9995 52.7383 50.5573 52.7039C51.1151 52.6696 51.6412 52.4325 52.0365 52.0375C52.4318 51.6424 52.6691 51.1165 52.7037 50.5587C53.0956 44.2612 52.5066 35.1358 48.0585 27.5022C43.741 20.0933 35.9654 14.3962 22.9166 13.8003V4.58327Z" fill="#7D7D7D"/>
</svg>
