<svg width="21" height="21" viewBox="0 0 21 21" fill="none" xmlns="http://www.w3.org/2000/svg">
<path d="M7.12623 10.1839C3.38406 11.6754 0.729737 15.3275 0.729741 19.5959C0.729401 19.685 0.746714 19.7734 0.780682 19.8558C0.81465 19.9383 0.864602 20.0132 0.927657 20.0763C0.990712 20.1393 1.06562 20.1893 1.14807 20.2232C1.23053 20.2572 1.31888 20.2745 1.40806 20.2742H20.327C20.5062 20.2735 20.6777 20.2016 20.804 20.0744C20.9302 19.9472 21.0007 19.7751 21 19.5959C21 15.3279 18.3464 11.6757 14.6048 10.1839C13.5702 10.9953 12.2721 11.4851 10.8649 11.4851C9.45736 11.4851 8.15997 10.9955 7.12623 10.1839Z" fill="black"/>
<path d="M10.8649 0.00390625C7.88756 0.00390625 5.46343 2.42806 5.46343 5.40535C5.46343 8.38267 7.88756 10.8121 10.8649 10.8121C13.8422 10.8121 16.2716 8.38267 16.2716 5.40535C16.2716 2.42806 13.8422 0.00390625 10.8649 0.00390625Z" fill="black"/>
</svg>
