<svg width="53" height="54" viewBox="0 0 53 54" fill="none" xmlns="http://www.w3.org/2000/svg">
<path d="M39.5312 0.210938C41.8105 0.210938 43.9963 1.09513 45.6079 2.669C47.2196 4.24286 48.125 6.37749 48.125 8.60327V22.3667C47.0263 21.8177 45.8749 21.3758 44.6875 21.0474V13.6387H3.4375V38.8157C3.4375 40.1511 3.98075 41.4319 4.94773 42.3762C5.91471 43.3206 7.22623 43.8511 8.59375 43.8511H21.3366C21.6769 45.0226 22.1272 46.1439 22.6875 47.208H8.59375C6.31455 47.208 4.12869 46.3238 2.51705 44.75C0.90541 43.1761 0 41.0415 0 38.8157V8.60327C0 6.37749 0.90541 4.24286 2.51705 2.669C4.12869 1.09513 6.31455 0.210938 8.59375 0.210938H39.5312ZM39.5312 3.56787H8.59375C7.22623 3.56787 5.91471 4.09838 4.94773 5.04271C3.98075 5.98703 3.4375 7.2678 3.4375 8.60327V10.2817H44.6875V8.60327C44.6875 7.2678 44.1443 5.98703 43.1773 5.04271C42.2103 4.09838 40.8988 3.56787 39.5312 3.56787Z" fill="#B93200"/>
<path d="M53 38.8157C53 42.8221 51.3703 46.6644 48.4693 49.4974C45.5684 52.3303 41.6338 53.9219 37.5312 53.9219C33.4287 53.9219 29.4941 52.3303 26.5932 49.4974C23.6922 46.6644 22.0625 42.8221 22.0625 38.8157C22.0625 34.8093 23.6922 30.9669 26.5932 28.134C29.4941 25.301 33.4287 23.7095 37.5312 23.7095C41.6338 23.7095 45.5684 25.301 48.4693 28.134C51.3703 30.9669 53 34.8093 53 38.8157ZM39.25 32.1018C39.25 31.6566 39.0689 31.2297 38.7466 30.9149C38.4243 30.6002 37.9871 30.4233 37.5312 30.4233C37.0754 30.4233 36.6382 30.6002 36.3159 30.9149C35.9936 31.2297 35.8125 31.6566 35.8125 32.1018V37.1372H30.6562C30.2004 37.1372 29.7632 37.314 29.4409 37.6288C29.1186 37.9436 28.9375 38.3705 28.9375 38.8157C28.9375 39.2608 29.1186 39.6878 29.4409 40.0025C29.7632 40.3173 30.2004 40.4941 30.6562 40.4941H35.8125V45.5295C35.8125 45.9747 35.9936 46.4016 36.3159 46.7164C36.6382 47.0312 37.0754 47.208 37.5312 47.208C37.9871 47.208 38.4243 47.0312 38.7466 46.7164C39.0689 46.4016 39.25 45.9747 39.25 45.5295V40.4941H44.4062C44.8621 40.4941 45.2993 40.3173 45.6216 40.0025C45.9439 39.6878 46.125 39.2608 46.125 38.8157C46.125 38.3705 45.9439 37.9436 45.6216 37.6288C45.2993 37.314 44.8621 37.1372 44.4062 37.1372H39.25V32.1018Z" fill="#B93200"/>
</svg>
