<svg width="55" height="55" viewBox="0 0 55 55" fill="none" xmlns="http://www.w3.org/2000/svg">
<path d="M39.5312 0C41.8105 0 43.9963 0.90541 45.6079 2.51705C47.2196 4.12869 48.125 6.31455 48.125 8.59375V22.6875C47.0263 22.1254 45.8749 21.6729 44.6875 21.3366V13.75H3.4375V39.5312C3.4375 40.8988 3.98075 42.2103 4.94773 43.1773C5.91471 44.1443 7.22623 44.6875 8.59375 44.6875H21.3366C21.6769 45.8872 22.1272 47.0353 22.6875 48.125H8.59375C6.31455 48.125 4.12869 47.2196 2.51705 45.6079C0.90541 43.9963 0 41.8105 0 39.5312V8.59375C0 6.31455 0.90541 4.12869 2.51705 2.51705C4.12869 0.90541 6.31455 0 8.59375 0H39.5312ZM39.5312 3.4375H8.59375C7.22623 3.4375 5.91471 3.98075 4.94773 4.94773C3.98075 5.91471 3.4375 7.22623 3.4375 8.59375V10.3125H44.6875V8.59375C44.6875 7.22623 44.1443 5.91471 43.1773 4.94773C42.2103 3.98075 40.8988 3.4375 39.5312 3.4375Z" fill="black"/>
<path d="M55 39.5312C55 43.6338 53.3703 47.5684 50.4693 50.4693C47.5684 53.3703 43.6338 55 39.5312 55C35.4287 55 31.4941 53.3703 28.5932 50.4693C25.6922 47.5684 24.0625 43.6338 24.0625 39.5312C24.0625 35.4287 25.6922 31.4941 28.5932 28.5932C31.4941 25.6922 35.4287 24.0625 39.5312 24.0625C43.6338 24.0625 47.5684 25.6922 50.4693 28.5932C53.3703 31.4941 55 35.4287 55 39.5312ZM41.25 32.6562C41.25 32.2004 41.0689 31.7632 40.7466 31.4409C40.4243 31.1186 39.9871 30.9375 39.5312 30.9375C39.0754 30.9375 38.6382 31.1186 38.3159 31.4409C37.9936 31.7632 37.8125 32.2004 37.8125 32.6562V37.8125H32.6562C32.2004 37.8125 31.7632 37.9936 31.4409 38.3159C31.1186 38.6382 30.9375 39.0754 30.9375 39.5312C30.9375 39.9871 31.1186 40.4243 31.4409 40.7466C31.7632 41.0689 32.2004 41.25 32.6562 41.25H37.8125V46.4062C37.8125 46.8621 37.9936 47.2993 38.3159 47.6216C38.6382 47.9439 39.0754 48.125 39.5312 48.125C39.9871 48.125 40.4243 47.9439 40.7466 47.6216C41.0689 47.2993 41.25 46.8621 41.25 46.4062V41.25H46.4062C46.8621 41.25 47.2993 41.0689 47.6216 40.7466C47.9439 40.4243 48.125 39.9871 48.125 39.5312C48.125 39.0754 47.9439 38.6382 47.6216 38.3159C47.2993 37.9936 46.8621 37.8125 46.4062 37.8125H41.25V32.6562Z" fill="black"/>
</svg>
