<svg width="470" height="352" viewBox="0 0 470 352" fill="none" xmlns="http://www.w3.org/2000/svg">
<path d="M466 177.692C466 80.5176 387.224 0 290.05 0H121V179.4C121 274.669 198.231 351.9 293.5 351.9C388.769 351.9 466 272.961 466 177.692Z" fill="#FE885C"/>
<g clip-path="url(#clip0)">
<path d="M423.954 140.11H148.202C147.031 140.11 145.909 140.575 145.081 141.403C144.253 142.231 143.788 143.354 143.788 144.525C143.788 145.696 144.253 146.819 145.081 147.647C145.909 148.475 147.031 148.94 148.202 148.94H156.013V254.554C156.013 255.725 156.478 256.848 157.306 257.676C158.134 258.504 159.257 258.969 160.428 258.969C161.599 258.969 162.722 258.504 163.55 257.676C164.377 256.848 164.843 255.725 164.843 254.554L164.91 148.94H386.228L406.634 254.554C406.634 255.725 407.1 256.848 407.927 257.676C408.755 258.504 409.878 258.969 411.049 258.969C412.22 258.969 413.343 258.504 414.171 257.676C414.999 256.848 415.464 255.725 415.464 254.554L416.748 148.94H423.954C425.125 148.94 426.248 148.475 427.076 147.647C427.903 146.819 428.369 145.696 428.369 144.525C428.369 143.354 427.903 142.231 427.076 141.403C426.248 140.575 425.125 140.11 423.954 140.11Z" fill="#CCCCCC"/>
<path d="M196 120.439V139.134H149.162C147.934 139.177 146.71 138.978 145.56 138.547C144.409 138.117 143.355 137.464 142.457 136.627C141.559 135.789 140.834 134.782 140.325 133.664C139.816 132.547 139.532 131.34 139.489 130.112C139.446 128.885 139.646 127.661 140.076 126.51C140.506 125.36 141.159 124.305 141.997 123.407C142.835 122.509 143.841 121.784 144.959 121.275C146.077 120.766 147.284 120.482 148.511 120.439C148.728 120.432 148.945 120.432 149.162 120.439L196 120.439Z" fill="#F2F2F2"/>
<path d="M197.151 138.991C197.151 139.181 197.075 139.364 196.94 139.499C196.805 139.634 196.622 139.71 196.432 139.71H148.327C145.716 139.708 143.212 138.669 141.366 136.822C139.52 134.975 138.483 132.47 138.483 129.859C138.483 127.247 139.52 124.743 141.366 122.896C143.212 121.048 145.716 120.01 148.327 120.008H196.432C196.526 120.008 196.62 120.026 196.707 120.062C196.795 120.098 196.874 120.151 196.941 120.218C197.008 120.285 197.061 120.364 197.098 120.451C197.134 120.539 197.153 120.632 197.153 120.727C197.153 120.821 197.134 120.915 197.098 121.002C197.061 121.09 197.008 121.169 196.941 121.236C196.874 121.303 196.795 121.356 196.707 121.392C196.62 121.428 196.526 121.446 196.432 121.446H148.327C146.098 121.449 143.962 122.337 142.387 123.914C140.812 125.492 139.927 127.63 139.927 129.859C139.927 132.088 140.812 134.226 142.387 135.803C143.962 137.38 146.098 138.268 148.327 138.272H196.432C196.622 138.272 196.805 138.347 196.94 138.482C197.075 138.617 197.151 138.8 197.151 138.991Z" fill="#6C63FF"/>
<path d="M196 124.754H145.667C145.629 124.755 145.592 124.74 145.565 124.713C145.538 124.686 145.523 124.65 145.522 124.612C145.522 124.574 145.537 124.537 145.563 124.51C145.59 124.483 145.626 124.467 145.664 124.467H196C196.038 124.467 196.074 124.482 196.101 124.509C196.128 124.536 196.143 124.573 196.143 124.611C196.143 124.648 196.128 124.685 196.101 124.712C196.074 124.739 196.038 124.754 196 124.754Z" fill="#CCCCCC"/>
<path d="M196 128.204H145.667C145.629 128.204 145.592 128.189 145.565 128.162C145.538 128.136 145.523 128.099 145.522 128.061C145.522 128.023 145.537 127.986 145.563 127.959C145.59 127.932 145.626 127.917 145.664 127.916H196C196.038 127.916 196.074 127.932 196.101 127.959C196.128 127.986 196.143 128.022 196.143 128.06C196.143 128.098 196.128 128.134 196.101 128.161C196.074 128.188 196.038 128.203 196 128.204Z" fill="#CCCCCC"/>
<path d="M196 131.656H145.667C145.629 131.656 145.592 131.641 145.565 131.614C145.538 131.588 145.523 131.551 145.522 131.513C145.522 131.475 145.537 131.439 145.563 131.411C145.59 131.384 145.626 131.369 145.664 131.368H196C196.038 131.369 196.074 131.384 196.101 131.411C196.128 131.438 196.143 131.474 196.143 131.512C196.143 131.55 196.128 131.586 196.101 131.613C196.074 131.64 196.038 131.655 196 131.656Z" fill="#CCCCCC"/>
<path d="M196 135.107H145.667C145.629 135.107 145.592 135.092 145.565 135.066C145.538 135.039 145.523 135.003 145.522 134.964C145.522 134.926 145.537 134.89 145.563 134.863C145.59 134.835 145.626 134.82 145.664 134.819H196C196.038 134.82 196.074 134.835 196.101 134.862C196.128 134.889 196.143 134.925 196.143 134.963C196.143 135.001 196.128 135.037 196.101 135.064C196.074 135.091 196.038 135.107 196 135.107Z" fill="#CCCCCC"/>
<path d="M187.171 100.742V119.437H140.332C137.853 119.523 135.441 118.621 133.627 116.929C131.813 115.237 130.745 112.894 130.659 110.415C130.573 107.936 131.475 105.524 133.167 103.71C134.859 101.896 137.203 100.828 139.682 100.742C139.898 100.734 140.115 100.734 140.332 100.742H187.171Z" fill="#F2F2F2"/>
<path d="M188.321 119.293C188.321 119.484 188.246 119.667 188.111 119.802C187.976 119.937 187.793 120.012 187.602 120.012H139.498C136.886 120.012 134.38 118.975 132.532 117.127C130.685 115.28 129.647 112.774 129.647 110.161C129.647 107.549 130.685 105.043 132.532 103.196C134.38 101.348 136.886 100.311 139.498 100.311H187.602C187.697 100.311 187.79 100.329 187.878 100.365C187.965 100.401 188.044 100.454 188.111 100.521C188.178 100.588 188.231 100.667 188.267 100.754C188.303 100.842 188.321 100.935 188.321 101.03C188.321 101.124 188.303 101.218 188.267 101.305C188.231 101.392 188.178 101.471 188.111 101.538C188.044 101.605 187.965 101.658 187.878 101.694C187.79 101.73 187.697 101.749 187.602 101.749H139.498C137.267 101.749 135.127 102.635 133.549 104.213C131.972 105.79 131.085 107.93 131.085 110.161C131.085 112.393 131.972 114.533 133.549 116.11C135.127 117.688 137.267 118.574 139.498 118.574H187.602C187.793 118.574 187.976 118.65 188.111 118.785C188.246 118.92 188.321 119.103 188.321 119.293Z" fill="#3F3D56"/>
<path d="M187.171 105.057H136.837C136.799 105.057 136.763 105.042 136.736 105.016C136.709 104.989 136.693 104.953 136.693 104.915C136.693 104.877 136.707 104.84 136.734 104.813C136.76 104.786 136.797 104.77 136.835 104.77H187.171C187.209 104.77 187.245 104.785 187.271 104.812C187.298 104.839 187.313 104.875 187.313 104.913C187.313 104.951 187.298 104.988 187.271 105.015C187.245 105.041 187.209 105.057 187.171 105.057Z" fill="#CCCCCC"/>
<path d="M187.171 108.509H136.837C136.799 108.51 136.763 108.495 136.736 108.468C136.709 108.441 136.693 108.405 136.693 108.367C136.693 108.329 136.707 108.292 136.734 108.265C136.76 108.238 136.797 108.222 136.835 108.222H187.171C187.209 108.222 187.245 108.237 187.271 108.264C187.298 108.291 187.313 108.328 187.313 108.365C187.313 108.403 187.298 108.44 187.271 108.467C187.245 108.494 187.209 108.509 187.171 108.509Z" fill="#CCCCCC"/>
<path d="M187.171 111.959H136.837C136.799 111.96 136.763 111.945 136.736 111.918C136.709 111.891 136.693 111.855 136.693 111.817C136.693 111.779 136.707 111.742 136.734 111.715C136.76 111.688 136.797 111.672 136.835 111.672H187.171C187.209 111.672 187.245 111.688 187.271 111.714C187.298 111.741 187.313 111.778 187.313 111.816C187.313 111.854 187.298 111.89 187.271 111.917C187.245 111.944 187.209 111.959 187.171 111.959Z" fill="#CCCCCC"/>
<path d="M187.171 115.411H136.837C136.799 115.411 136.763 115.396 136.736 115.369C136.709 115.343 136.693 115.306 136.693 115.268C136.693 115.23 136.707 115.193 136.734 115.166C136.76 115.139 136.797 115.124 136.835 115.123H187.171C187.209 115.123 187.245 115.139 187.271 115.166C187.298 115.193 187.313 115.229 187.313 115.267C187.313 115.305 187.298 115.341 187.271 115.368C187.245 115.395 187.209 115.41 187.171 115.411Z" fill="#CCCCCC"/>
<path d="M241.658 206.264V189.964C241.658 189.243 241.372 188.552 240.862 188.043C240.353 187.533 239.662 187.247 238.941 187.247H177.135C176.414 187.247 175.723 187.533 175.214 188.043C174.704 188.552 174.418 189.243 174.418 189.964V206.264H241.658Z" fill="#CCCCCC"/>
<path d="M241.658 212.377H174.418V233.432H241.658V212.377Z" fill="#CCCCCC"/>
<path d="M174.418 239.546V255.847C174.418 256.567 174.704 257.258 175.214 257.768C175.723 258.277 176.414 258.563 177.135 258.563H238.941C239.662 258.563 240.353 258.277 240.862 257.768C241.372 257.258 241.658 256.567 241.658 255.847V239.546H174.418Z" fill="#CCCCCC"/>
<path d="M207.699 199.473C208.824 199.473 209.736 198.56 209.736 197.435C209.736 196.31 208.824 195.397 207.699 195.397C206.573 195.397 205.661 196.31 205.661 197.435C205.661 198.56 206.573 199.473 207.699 199.473Z" fill="white"/>
<path d="M207.699 226.64C208.824 226.64 209.736 225.727 209.736 224.602C209.736 223.477 208.824 222.564 207.699 222.564C206.573 222.564 205.661 223.477 205.661 224.602C205.661 225.727 206.573 226.64 207.699 226.64Z" fill="white"/>
<path d="M207.808 253.232C208.933 253.232 209.845 252.32 209.845 251.195C209.845 250.069 208.933 249.157 207.808 249.157C206.683 249.157 205.77 250.069 205.77 251.195C205.77 252.32 206.683 253.232 207.808 253.232Z" fill="white"/>
<path d="M234.035 168.662V187.357H187.196C184.718 187.442 182.308 186.539 180.495 184.847C178.683 183.155 177.616 180.813 177.53 178.335C177.444 175.857 178.345 173.446 180.035 171.632C181.726 169.818 184.067 168.75 186.545 168.662C186.762 168.654 186.979 168.654 187.196 168.662H234.035Z" fill="#F2F2F2"/>
<path d="M235.185 187.213C235.185 187.404 235.11 187.587 234.975 187.722C234.84 187.856 234.657 187.932 234.466 187.932H186.362C183.75 187.933 181.245 186.896 179.397 185.05C177.549 183.204 176.51 180.699 176.509 178.087C176.507 175.475 177.543 172.97 179.389 171.121C181.234 169.273 183.738 168.233 186.35 168.23H234.466C234.561 168.23 234.655 168.249 234.742 168.285C234.83 168.321 234.909 168.374 234.976 168.44C235.043 168.507 235.096 168.587 235.132 168.674C235.169 168.761 235.187 168.855 235.187 168.95C235.187 169.044 235.169 169.138 235.132 169.225C235.096 169.312 235.043 169.392 234.976 169.459C234.909 169.525 234.83 169.578 234.742 169.614C234.655 169.65 234.561 169.669 234.466 169.669H186.362C184.133 169.671 181.996 170.559 180.42 172.137C178.845 173.714 177.96 175.852 177.96 178.081C177.96 180.311 178.845 182.449 180.42 184.026C181.996 185.604 184.133 186.491 186.362 186.494H234.466C234.657 186.494 234.84 186.57 234.975 186.705C235.11 186.84 235.185 187.023 235.185 187.213Z" fill="#3F3D56"/>
<path d="M234.035 172.976H183.702C183.664 172.976 183.627 172.961 183.6 172.935C183.573 172.908 183.557 172.872 183.557 172.834C183.557 172.796 183.572 172.759 183.598 172.732C183.625 172.705 183.661 172.689 183.699 172.688H234.035C234.073 172.689 234.109 172.704 234.136 172.731C234.162 172.758 234.177 172.794 234.177 172.832C234.177 172.87 234.162 172.907 234.136 172.933C234.109 172.96 234.073 172.976 234.035 172.976H234.035Z" fill="#CCCCCC"/>
<path d="M234.035 176.427H183.702C183.664 176.427 183.627 176.413 183.6 176.386C183.573 176.359 183.557 176.323 183.557 176.285C183.557 176.247 183.572 176.21 183.598 176.183C183.625 176.156 183.661 176.14 183.699 176.14H234.035C234.073 176.14 234.109 176.155 234.136 176.182C234.162 176.209 234.177 176.246 234.177 176.283C234.177 176.321 234.162 176.358 234.136 176.385C234.109 176.412 234.073 176.427 234.035 176.427H234.035Z" fill="#CCCCCC"/>
<path d="M234.035 179.879H183.702C183.664 179.88 183.627 179.865 183.6 179.838C183.573 179.811 183.557 179.775 183.557 179.737C183.557 179.699 183.572 179.662 183.598 179.635C183.625 179.608 183.661 179.592 183.699 179.592H234.035C234.073 179.592 234.109 179.607 234.136 179.634C234.162 179.661 234.177 179.698 234.177 179.736C234.177 179.773 234.162 179.81 234.136 179.837C234.109 179.864 234.073 179.879 234.035 179.879H234.035Z" fill="#CCCCCC"/>
<path d="M234.035 183.33H183.702C183.664 183.33 183.627 183.315 183.6 183.288C183.573 183.262 183.557 183.225 183.557 183.187C183.557 183.149 183.572 183.112 183.598 183.085C183.625 183.058 183.661 183.042 183.699 183.042H234.035C234.073 183.042 234.109 183.058 234.136 183.085C234.162 183.112 234.177 183.148 234.177 183.186C234.177 183.224 234.162 183.26 234.136 183.287C234.109 183.314 234.073 183.329 234.035 183.33H234.035Z" fill="#CCCCCC"/>
<path d="M179.025 94.5058H157.685C157.483 94.5056 157.283 94.5521 157.101 94.6416L151.715 97.338C151.538 97.4133 151.387 97.5392 151.281 97.6998C151.174 97.8604 151.118 98.0487 151.118 98.2413C151.118 98.4339 151.174 98.6222 151.281 98.7828C151.387 98.9435 151.538 99.0693 151.715 99.1446L157.101 101.841C157.283 101.931 157.483 101.977 157.685 101.977H179.025C179.32 101.994 179.609 101.894 179.83 101.7C180.051 101.505 180.187 101.232 180.207 100.938V95.5449C180.187 95.2511 180.051 94.9773 179.83 94.7828C179.608 94.5883 179.32 94.4888 179.025 94.5058Z" fill="#3F3D56"/>
<path d="M180.207 95.545V100.938C180.187 101.232 180.051 101.505 179.83 101.7C179.609 101.894 179.32 101.994 179.025 101.977H174.774V94.5058H179.025C179.32 94.4888 179.609 94.5883 179.83 94.7828C180.051 94.9773 180.187 95.2511 180.207 95.545Z" fill="#6C63FF"/>
<path d="M299.776 139.686L297.523 138.738L295.978 127.442H275.394L273.719 138.691L271.703 139.699C271.607 139.748 271.529 139.827 271.484 139.925C271.438 140.022 271.427 140.133 271.451 140.237C271.476 140.342 271.536 140.436 271.62 140.503C271.705 140.57 271.809 140.606 271.917 140.606H299.591C299.701 140.606 299.808 140.568 299.894 140.498C299.979 140.428 300.038 140.331 300.06 140.222C300.082 140.114 300.066 140.001 300.014 139.904C299.962 139.806 299.878 139.729 299.776 139.686Z" fill="#E6E6E6"/>
<path d="M336.355 128.945H235.243C234.713 128.944 234.204 128.732 233.83 128.357C233.455 127.981 233.245 127.472 233.245 126.942V112.684H338.353V126.942C338.353 127.472 338.143 127.981 337.768 128.356C337.393 128.732 336.885 128.944 336.355 128.945Z" fill="#CCCCCC"/>
<path d="M338.459 119.422H233.152V58.4148C233.153 57.7746 233.408 57.1608 233.86 56.7081C234.313 56.2554 234.927 56.0007 235.567 56H336.044C336.684 56.0007 337.298 56.2554 337.751 56.7081C338.204 57.1608 338.458 57.7746 338.459 58.4148L338.459 119.422Z" fill="#3F3D56"/>
<path d="M332.169 114.993H239.442C238.948 114.992 238.475 114.796 238.126 114.447C237.777 114.098 237.581 113.625 237.58 113.131V62.2885C237.581 61.7949 237.777 61.3217 238.126 60.9727C238.475 60.6237 238.948 60.4273 239.442 60.4268H332.169C332.663 60.4273 333.136 60.6237 333.485 60.9727C333.834 61.3217 334.03 61.7949 334.031 62.2885V113.131C334.03 113.625 333.834 114.098 333.485 114.447C333.136 114.796 332.663 114.992 332.169 114.993Z" fill="white"/>
<path d="M307.746 132.934C308.345 132.381 309.057 131.966 309.834 131.718C310.61 131.47 311.432 131.396 312.24 131.5C313.048 131.604 313.824 131.884 314.512 132.32C315.201 132.756 315.785 133.338 316.224 134.024L328.767 131.794L331.981 139.086L314.224 141.986C313.022 142.648 311.619 142.845 310.281 142.541C308.943 142.237 307.763 141.453 306.964 140.337C306.166 139.222 305.804 137.852 305.948 136.487C306.093 135.122 306.732 133.858 307.746 132.934Z" fill="#FFB6B6"/>
<path d="M319.359 142.245L332.435 142.082L334.09 142.059L360.693 141.724C360.693 141.724 367.917 134.832 374.208 127.736L373.326 121.359C372.466 115.1 369.362 109.367 364.59 105.227C355.58 111.247 350.356 123.163 350.356 123.163L333.861 127.108L332.21 127.503L321.961 129.952L319.359 142.245Z" fill="#6C63FF"/>
<path d="M386.295 181.442H361.887C361.887 182.488 335.207 183.337 335.207 183.337C334.618 183.78 334.082 184.289 333.608 184.853C332.183 186.551 331.405 188.699 331.41 190.915V192.431C331.411 194.943 332.409 197.352 334.185 199.128C335.962 200.905 338.371 201.903 340.883 201.904H386.295C388.807 201.902 391.215 200.903 392.991 199.127C394.767 197.351 395.766 194.943 395.768 192.431V190.915C395.765 188.404 394.765 185.997 392.99 184.221C391.214 182.445 388.806 181.446 386.295 181.442Z" fill="#E4E4E4"/>
<path d="M368.546 201.528H358.694V258.394H368.546V201.528Z" fill="#E4E4E4"/>
<path d="M330.654 258.048C330.654 259.112 345.583 258.46 363.999 258.46C382.415 258.46 397.344 259.112 397.344 258.048C397.344 256.983 382.415 248.542 363.999 248.542C345.583 248.542 330.654 256.983 330.654 258.048Z" fill="#E4E4E4"/>
<path d="M324.036 251.549L316.704 251.549L313.216 223.268L324.037 223.268L324.036 251.549Z" fill="#FFB6B6"/>
<path d="M325.906 258.657L302.264 258.656V258.357C302.264 255.917 303.234 253.576 304.96 251.851C306.685 250.125 309.026 249.155 311.466 249.155H311.467L325.907 249.156L325.906 258.657Z" fill="#2F2E41"/>
<path d="M302.365 251.549L295.033 251.549L291.545 223.268L302.366 223.268L302.365 251.549Z" fill="#FFB6B6"/>
<path d="M304.235 258.657L280.593 258.656V258.357C280.593 255.917 281.563 253.576 283.289 251.851C285.014 250.125 287.355 249.155 289.795 249.155H289.796L304.236 249.156L304.235 258.657Z" fill="#2F2E41"/>
<path d="M368.045 88.7317C375.086 88.7317 380.794 83.0239 380.794 75.983C380.794 68.9421 375.086 63.2344 368.045 63.2344C361.004 63.2344 355.297 68.9421 355.297 75.983C355.297 83.0239 361.004 88.7317 368.045 88.7317Z" fill="#FFB6B6"/>
<path d="M388.679 163.332C388.679 163.332 392.956 185.951 376.681 188.831C360.406 191.711 336.912 193.736 336.912 193.736L326.361 242.96L312.187 241.694C312.187 241.694 314.072 182.44 318.708 177.804C323.344 173.168 352.644 159.287 352.644 159.287L388.679 163.332Z" fill="#2F2E41"/>
<path d="M356.892 153.852L349.774 160.992C349.774 160.992 298.377 169.271 296.394 181.142C293.401 199.064 289.865 238.038 289.865 238.038L305.318 236.879L311.377 192.577L336.102 186.953L364.232 171.622L356.892 153.852Z" fill="#2F2E41"/>
<path d="M380.313 68.3732C379.055 65.9988 377.456 61.2666 374.916 60.389C373.505 59.9212 372.047 59.6106 370.568 59.4629L366.251 61.1234L368.601 59.2959C368.143 59.2686 367.686 59.2463 367.229 59.229L364.316 60.3494L365.806 59.1903C363.09 59.1624 360.287 59.4448 358.183 61.0981C356.389 62.5075 354.611 67.8466 354.324 70.1098C354.017 72.2748 354.124 74.4786 354.641 76.6034L355.379 77.3049C355.637 76.7132 355.831 76.0955 355.957 75.4625C356.222 74.2798 356.73 73.1651 357.449 72.1896C358.168 71.214 359.082 70.399 360.134 69.7964L360.174 69.7737C361.411 69.0774 362.913 69.1095 364.332 69.1605L371.071 69.403C372.692 69.4614 374.438 69.564 375.702 70.581C376.505 71.3312 377.137 72.2462 377.553 73.2634C378.181 74.5311 379.409 79.3124 379.409 79.3124C379.409 79.3124 380.103 78.4099 380.436 79.0816C380.97 77.329 381.294 75.5193 381.403 73.6904C381.509 71.8534 381.133 70.0205 380.313 68.3732Z" fill="#2F2E41"/>
<path d="M424.902 81.581C424.089 81.6346 423.297 81.8658 422.583 82.2584C421.869 82.6509 421.249 83.1953 420.768 83.8532C420.287 84.5111 419.956 85.2664 419.799 86.0661C419.641 86.8657 419.661 87.6901 419.857 88.4813L409.605 96.0435L412.681 103.394L427.008 92.5117C428.316 92.0951 429.425 91.2134 430.126 90.0337C430.826 88.8539 431.07 87.4582 430.81 86.1108C430.551 84.7635 429.806 83.5582 428.717 82.7233C427.628 81.8884 426.271 81.482 424.902 81.581Z" fill="#FFB6B6"/>
<path d="M423.252 97.0196L397.552 125.563C397.552 125.563 385.262 121.628 375.756 117.363L371.486 104.247C370.495 101.205 370.072 98.0058 370.238 94.81C383.415 91.3037 398.741 104.35 398.741 104.35L417.979 89.2812L423.252 97.0196Z" fill="#6C63FF"/>
<path d="M363.283 165.439C358.698 163.855 353.957 162.217 348.843 161.602L348.623 161.576L348.684 161.363C353.978 142.775 352.657 130.885 350.062 113.024C349.511 109.171 350.219 105.244 352.083 101.827C353.947 98.4103 356.866 95.688 360.404 94.0664L360.435 94.0522L375.041 93.1241L375.075 93.1221L385.697 96.2463C387.225 96.6991 388.563 97.6404 389.505 98.926C390.447 100.212 390.941 101.771 390.913 103.364C390.798 109.238 391.042 115.796 391.3 122.739C391.88 138.315 392.479 154.422 389.078 164.872L389.06 164.927L389.015 164.963C385.888 167.509 381.97 168.885 377.938 168.854C373.17 168.854 368.304 167.173 363.283 165.439Z" fill="#6C63FF"/>
<path d="M458.5 260H113.5C113.367 260 113.24 259.947 113.146 259.854C113.053 259.76 113 259.633 113 259.5C113 259.367 113.053 259.24 113.146 259.146C113.24 259.053 113.367 259 113.5 259H458.5C458.633 259 458.76 259.053 458.854 259.146C458.947 259.24 459 259.367 459 259.5C459 259.633 458.947 259.76 458.854 259.854C458.76 259.947 458.633 260 458.5 260Z" fill="#CCCCCC"/>
</g>
<defs>
<clipPath id="clip0">
<rect width="470" height="204" fill="white" transform="translate(0 56)"/>
</clipPath>
</defs>
</svg>
