<svg width="200" height="200" viewBox="0 0 117 137" fill="none" xmlns="http://www.w3.org/2000/svg">
<path d="M58.0642 113.349C61.0712 113.349 62.0732 106.334 62.0732 99.319C62.0722 93.304 57.0622 87.291 48.0422 87.291C39.0222 87.291 34.0122 93.304 34.0122 99.317C34.0122 106.333 35.0142 113.348 38.0202 113.348L37.2892 108.578L38.1912 101.418L38.6592 100.32L40.5312 99.717L42.8712 98.951L45.9372 97.291L47.5952 96.057L50.2332 94.312L51.7562 93.334L52.9562 96.057L54.7022 98.185L56.8292 100.32L57.8502 101.164V102.058L58.4122 104.355L59.0662 104.951L58.5882 110.889L58.0642 113.349Z" fill="#B93200"/>
<path d="M36.9178 106.335C36.8178 114.352 41.0268 120.365 47.9418 120.365C55.0568 120.365 59.0658 114.352 59.0658 106.335C59.0658 101.324 54.3638 96.6646 54.3638 96.6646C47.3138 89.0496 45.8938 99.2446 39.7228 99.0376C39.7228 99.0376 37.0178 101.324 36.9178 106.335Z" fill="#A8A8D0"/>
<path d="M29 136.399V132.391C29 127.381 34.011 123.371 39.022 123.371C45.0353 128.382 51.0487 128.382 57.062 123.371C62.072 123.371 67.084 127.38 67.084 132.391V136.4" fill="#6C63FF"/>
<path d="M38.9359 110.145L47.9179 108.578L58.0289 110.072L58.4119 111.798L52.9989 120.173H43.1699L37.6719 110.51L38.9359 110.145Z" fill="white"/>
<path d="M34.131 103.328C34.0203 101.995 33.9802 100.656 34.011 99.319C34.011 93.306 39.022 87.293 48.042 87.293C57.062 87.293 62.072 93.306 62.072 99.319C62.1043 100.657 62.0646 101.995 61.953 103.329" stroke="black" stroke-width="2" stroke-linecap="round" stroke-linejoin="round"/>
<path d="M53.9548 105.332C53.9548 105.728 53.8372 106.116 53.617 106.445C53.3968 106.775 53.0839 107.032 52.7177 107.184C52.3515 107.335 51.9486 107.375 51.5598 107.298C51.1711 107.22 50.814 107.029 50.5337 106.749C50.2535 106.469 50.0626 106.112 49.9853 105.723C49.908 105.334 49.9476 104.931 50.0993 104.565C50.251 104.199 50.5079 103.886 50.8374 103.666C51.167 103.446 51.5544 103.328 51.9508 103.328C52.4818 103.33 52.9906 103.541 53.3661 103.917C53.7416 104.292 53.9532 104.801 53.9548 105.332Z" fill="black"/>
<path d="M45.9372 105.332C45.9372 105.728 45.8197 106.116 45.5995 106.445C45.3793 106.775 45.0663 107.032 44.7001 107.184C44.3339 107.335 43.931 107.375 43.5422 107.298C43.1535 107.22 42.7964 107.029 42.5162 106.749C42.2359 106.469 42.045 106.112 41.9677 105.723C41.8904 105.334 41.9301 104.931 42.0817 104.565C42.2334 104.199 42.4903 103.886 42.8198 103.666C43.1494 103.446 43.5368 103.328 43.9332 103.328C44.4642 103.33 44.973 103.541 45.3485 103.917C45.724 104.292 45.9356 104.801 45.9372 105.332Z" fill="black"/>
<path d="M53.9548 105.332C53.9548 105.728 53.8372 106.116 53.617 106.445C53.3968 106.775 53.0839 107.032 52.7177 107.184C52.3515 107.335 51.9486 107.375 51.5598 107.298C51.1711 107.22 50.814 107.029 50.5337 106.749C50.2535 106.469 50.0626 106.112 49.9853 105.723C49.908 105.334 49.9476 104.931 50.0993 104.565C50.251 104.199 50.5079 103.886 50.8374 103.666C51.167 103.446 51.5544 103.328 51.9508 103.328C52.4818 103.33 52.9906 103.541 53.3661 103.917C53.7416 104.292 53.9532 104.801 53.9548 105.332Z" fill="black"/>
<path d="M45.9372 105.332C45.9372 105.728 45.8197 106.116 45.5995 106.445C45.3793 106.775 45.0663 107.032 44.7001 107.184C44.3339 107.335 43.931 107.375 43.5422 107.298C43.1535 107.22 42.7964 107.029 42.5162 106.749C42.2359 106.469 42.045 106.112 41.9677 105.723C41.8904 105.334 41.9301 104.931 42.0817 104.565C42.2334 104.199 42.4903 103.886 42.8198 103.666C43.1494 103.446 43.5368 103.328 43.9332 103.328C44.4642 103.33 44.973 103.541 45.3485 103.917C45.724 104.292 45.9356 104.801 45.9372 105.332Z" fill="black"/>
<path d="M29 135.397V132.391C29 127.381 34.011 123.371 39.022 123.371C45.0353 128.382 51.0487 128.382 57.062 123.371C62.072 123.371 67.084 127.38 67.084 132.391V135.398" stroke="black" stroke-width="2" stroke-linecap="round" stroke-linejoin="round"/>
<path d="M44.7419 120.174C43.4079 120.185 41.1169 118.322 40.2449 117.104C39.0245 115.363 38.1943 113.378 37.8109 111.286L37.6709 110.836L46.5809 108.538C47.5262 108.293 48.519 108.3 49.4609 108.557L57.8689 110.836H58.4119C58.2156 112.877 57.5884 114.852 56.5719 116.632C55.6939 118.048 53.2919 120.088 51.8289 120.1L44.7419 120.174Z" stroke="black" stroke-width="2" stroke-linecap="round" stroke-linejoin="round"/>
<path d="M58.2109 110.608L61.5189 107.975" stroke="black" stroke-width="2" stroke-linecap="round" stroke-linejoin="round"/>
<path d="M37.6721 110.607L34.3721 107.559" stroke="black" stroke-width="2" stroke-linecap="round" stroke-linejoin="round"/>
<path d="M59.0159 104.695C58.9347 103.316 58.6089 101.962 58.0539 100.697C55.0539 97.6973 51.0539 92.6973 51.0539 92.6973C47.0539 95.6973 44.0539 98.6973 38.0539 99.6973C38.0539 99.6973 37.1239 100.57 37.0039 104.766" stroke="black" stroke-width="2" stroke-linecap="round" stroke-linejoin="round"/>
<path d="M114.194 108.538C113.755 107.685 113.369 106.805 113.036 105.905C111.564 102.635 111.013 101.412 110.688 95.381C110.715 91.688 106.894 88.597 103.213 88.288C103.081 88.2791 102.953 88.2443 102.834 88.1854C102.716 88.1265 102.611 88.0448 102.524 87.945C102.432 87.845 100.116 85.291 95.2812 85.291C89.0812 85.291 83.8412 88.672 82.5382 93.516C82.0044 95.5283 81.8137 97.6163 81.9742 99.692C82.1784 101.711 81.9184 103.75 81.2142 105.653C80.2908 107.305 79.2481 108.887 78.0942 110.387L78.2842 114.839C78.3708 117.311 79.2824 119.682 80.8737 121.575C82.465 123.469 84.6443 124.775 87.0642 125.285C87.3455 125.349 87.6329 125.381 87.9212 125.38C92.8742 126.669 98.8172 128.296 106.621 125.38C108.136 125.492 109.592 126.015 110.831 126.893C111.884 126.2 112.878 122.421 113.802 121.563C114.99 120.849 116.927 113.281 114.194 108.538ZM96.0002 120.838C85.0442 120.788 85.8962 104.469 85.8962 104.469C88.2092 101.929 101.39 93.679 101.39 93.679C107.47 95.753 107.773 105.319 107.773 105.319C107.773 105.319 105.596 120.388 96.0002 120.838Z" fill="#571800"/>
<path d="M84.5098 104.942V105.984C84.5098 114.312 89.3598 120.838 95.5538 120.838C101.748 120.838 106.598 114.312 106.598 105.984C106.598 100.917 104.727 97.8013 101.038 93.8613C98.0672 96.2189 94.9026 98.3211 91.5778 100.145C88.7918 101.794 84.9948 104.032 84.5098 104.942Z" fill="#A8A8D0"/>
<path d="M76.958 136.778V132.77C76.958 127.76 81.969 123.75 86.98 123.75C92.9933 128.761 99.0067 128.761 105.02 123.75C110.03 123.75 115.042 127.759 115.042 132.77V136.779" fill="#FF601C"/>
<path d="M86.4471 110.305L95.4301 108.738L105.541 110.232L105.924 111.958L100.511 120.333H90.6811L85.1841 110.669L86.4471 110.305Z" fill="white"/>
<path d="M102.035 104.652C102.035 105.048 101.918 105.435 101.698 105.763C101.478 106.092 101.166 106.349 100.801 106.5C100.435 106.651 100.033 106.691 99.645 106.614C99.257 106.537 98.9006 106.346 98.6209 106.067C98.3412 105.787 98.1508 105.43 98.0736 105.043C97.9964 104.655 98.036 104.252 98.1874 103.887C98.3388 103.522 98.5951 103.209 98.924 102.989C99.2529 102.77 99.6396 102.652 100.035 102.652C100.566 102.652 101.074 102.863 101.449 103.238C101.824 103.613 102.035 104.122 102.035 104.652Z" fill="black"/>
<path d="M94.0352 104.652C94.0352 105.048 93.9179 105.435 93.6981 105.763C93.4783 106.092 93.166 106.349 92.8005 106.5C92.4351 106.651 92.0329 106.691 91.645 106.614C91.257 106.537 90.9006 106.346 90.6209 106.067C90.3412 105.787 90.1508 105.43 90.0736 105.043C89.9964 104.655 90.036 104.252 90.1874 103.887C90.3388 103.522 90.5951 103.209 90.924 102.989C91.2529 102.77 91.6396 102.652 92.0352 102.652C92.5656 102.652 93.0743 102.863 93.4494 103.238C93.8244 103.613 94.0352 104.122 94.0352 104.652Z" fill="black"/>
<path d="M78.5811 111.592C79.1961 109.818 80.0791 108.098 80.7731 106.316C82.4081 102.116 80.5631 99.8664 82.0631 94.2824C83.5431 88.7824 89.3411 85.3164 95.7731 85.3164C101.173 85.3164 103.773 88.3164 103.773 88.3164C105.785 88.4969 107.658 89.4199 109.027 90.9056C110.396 92.3913 111.163 94.3333 111.178 96.3534C111.565 103.533 112.202 103.506 114.607 109.176C115.427 111.073 115.724 113.154 115.47 115.205C115.216 117.255 114.418 119.2 113.16 120.839" stroke="black" stroke-width="2" stroke-linecap="round" stroke-linejoin="round"/>
<path d="M106.29 110.651C106.791 108.979 107.042 107.243 107.035 105.498C107.035 100.498 105.035 97.498 101.035 93.498C97.0352 97.498 85.0352 102.498 85.0352 104.498V105.498C85.0307 107.033 85.2236 108.562 85.6092 110.048" stroke="black" stroke-width="2" stroke-linejoin="round"/>
<path d="M76.958 135.776V132.77C76.958 127.76 81.969 123.75 86.98 123.75C92.9933 128.761 99.0067 128.761 105.02 123.75C110.03 123.75 115.042 127.759 115.042 132.77V135.777" stroke="black" stroke-width="2" stroke-linecap="round" stroke-linejoin="round"/>
<path d="M106.169 110.985L109.477 108.352" stroke="black" stroke-width="2" stroke-linecap="round" stroke-linejoin="round"/>
<path d="M85.6301 110.986L82.3301 107.938" stroke="black" stroke-width="2" stroke-linecap="round" stroke-linejoin="round"/>
<path d="M92.5759 120.109C91.2429 120.12 88.9519 118.257 88.0789 117.039C86.8589 115.297 86.029 113.313 85.6459 111.221L85.5059 110.771L94.4159 108.474C95.361 108.229 96.3538 108.235 97.2959 108.492L105.703 110.771H106.247C106.051 112.812 105.423 114.787 104.407 116.567C103.529 117.983 101.127 120.023 99.6639 120.035L92.5759 120.109Z" stroke="black" stroke-width="2" stroke-linecap="round" stroke-linejoin="round"/>
<g clip-path="url(#clip0)">
<path d="M69.1391 90.5691C71.9773 90.5691 74.2781 88.2683 74.2781 85.4301C74.2781 82.5919 71.9773 80.291 69.1391 80.291C66.3008 80.291 64 82.5919 64 85.4301C64 88.2683 66.3008 90.5691 69.1391 90.5691Z" fill="white"/>
<path d="M63.1703 79.6316C66.5781 79.6316 69.3406 76.8691 69.3406 73.4613C69.3406 70.0536 66.5781 67.291 63.1703 67.291C59.7625 67.291 57 70.0536 57 73.4613C57 76.8691 59.7625 79.6316 63.1703 79.6316Z" fill="white"/>
<path d="M77.2141 94.7191C78.9891 94.7191 80.4281 93.2802 80.4281 91.5051C80.4281 89.73 78.9891 88.291 77.2141 88.291C75.439 88.291 74 89.73 74 91.5051C74 93.2802 75.439 94.7191 77.2141 94.7191Z" fill="white"/>
<path d="M84.2149 40.3967C84.9064 38.1336 85.2703 35.7506 85.2703 33.2818C85.2521 18.932 72.914 7.29102 57.6825 7.29102C47.2006 7.29102 38.0835 12.8115 33.4067 20.9207C30.4041 18.5034 26.4916 17.0461 22.2333 17.0461C12.7159 17.0461 5 24.3153 5 33.2818C5 37.4136 6.6378 41.2025 9.34927 44.0656C6.69239 46.2258 5 49.4146 5 52.9806C5 59.4783 10.5867 64.7588 17.5019 64.7588C20.3043 64.7588 22.9066 63.8844 24.9993 62.41C27.6562 69.3363 34.6987 74.291 42.9605 74.291C50.7674 74.291 57.4823 69.8678 60.4304 63.5415C63.3056 65.5817 66.8906 66.7818 70.7667 66.7818C80.2841 66.7818 88 59.5126 88 50.5461C88 46.7058 86.5806 43.1741 84.2149 40.3967Z" fill="white"/>
</g>
<path d="M38.4945 23.0179L40.2285 31.237L39.5123 31.3881L32.8215 25.8336L34.2286 32.5028L33.3597 32.6861L31.6257 24.4671L32.3419 24.316L39.0444 29.8679L37.6373 23.1987L38.4945 23.0179ZM43.5826 24.0293C44.3888 23.8592 45.0502 23.9323 45.5666 24.2485C46.0813 24.5569 46.4221 25.1064 46.5889 25.897L47.3964 29.7247L46.598 29.8932L46.3949 28.9303C46.2747 29.2909 46.0497 29.6 45.7198 29.8577C45.3977 30.1137 44.9862 30.2945 44.4852 30.4002C43.7964 30.5456 43.2137 30.4968 42.7373 30.2539C42.2609 30.011 41.9658 29.6195 41.8518 29.0794C41.7412 28.5549 41.8398 28.0926 42.1479 27.6924C42.4637 27.2906 43.0365 27.0021 43.8662 26.827L45.8271 26.4134L45.7478 26.0376C45.6355 25.5053 45.4017 25.1336 45.0465 24.9224C44.6896 24.7033 44.2254 24.6541 43.654 24.7747C43.2626 24.8572 42.9009 25.003 42.5689 25.2121C42.2353 25.4133 41.9632 25.6546 41.7528 25.9361L41.2458 25.3931C41.5027 25.0609 41.8355 24.7781 42.2441 24.5447C42.6511 24.3035 43.0973 24.1317 43.5826 24.0293ZM44.4756 29.7155C44.9453 29.6164 45.3261 29.4256 45.6181 29.1433C45.9085 28.8531 46.0929 28.4871 46.1714 28.0454L45.9584 27.0357L44.021 27.4444C42.9643 27.6673 42.5135 28.1467 42.6688 28.8825C42.7447 29.2426 42.942 29.4994 43.2605 29.6529C43.5775 29.7987 43.9825 29.8195 44.4756 29.7155ZM44.1964 22.8696C44.0164 22.9076 43.8476 22.9023 43.6902 22.8538C43.5312 22.7974 43.3538 22.7122 43.158 22.5982C42.9923 22.5105 42.8615 22.4522 42.7655 22.4234C42.6756 22.3851 42.5837 22.3759 42.4898 22.3957C42.3098 22.4337 42.179 22.5308 42.0975 22.687C42.016 22.8432 41.9961 23.0395 42.0378 23.276L41.5329 23.3825C41.466 22.9878 41.5017 22.6533 41.64 22.3788C41.7783 22.1043 42.004 21.9341 42.3172 21.868C42.4972 21.83 42.662 21.8361 42.8116 21.8863C42.969 21.9349 43.1542 22.0184 43.3673 22.137C43.5157 22.2202 43.6387 22.2801 43.7363 22.3167C43.834 22.3533 43.9298 22.3617 44.0237 22.3419C44.196 22.3056 44.3236 22.2132 44.4068 22.0649C44.4883 21.9087 44.513 21.7154 44.4807 21.4851L44.9856 21.3786C45.0509 21.7655 45.0143 22.0961 44.876 22.3706C44.736 22.6372 44.5095 22.8036 44.1964 22.8696ZM52.2205 28.7683C51.6256 28.8938 51.0613 28.8738 50.5277 28.7084C49.9924 28.5352 49.5374 28.2387 49.1627 27.8191C48.7879 27.3994 48.537 26.8882 48.4099 26.2854C48.2827 25.6827 48.3057 25.1137 48.4789 24.5784C48.6522 24.0431 48.9495 23.592 49.3708 23.2251C49.7921 22.8583 50.3003 22.6121 50.8952 22.4865C51.4901 22.361 52.0543 22.381 52.588 22.5464C53.1216 22.7118 53.5719 23.0051 53.9388 23.4265C54.3135 23.8462 54.5644 24.3574 54.6916 24.9601C54.8187 25.5628 54.7957 26.1319 54.6225 26.6671C54.4571 27.2008 54.1645 27.655 53.7448 28.0297C53.3235 28.3966 52.8154 28.6427 52.2205 28.7683ZM52.0644 28.0285C52.5028 27.9361 52.8735 27.7556 53.1766 27.4873C53.4859 27.2094 53.6996 26.8659 53.8177 26.4567C53.9358 26.0476 53.9453 25.6081 53.8462 25.1385C53.7471 24.6688 53.5609 24.2707 53.2876 23.9441C53.0143 23.6174 52.6808 23.3935 52.2873 23.2721C51.9 23.1412 51.4871 23.122 51.0488 23.2145C50.6104 23.307 50.2366 23.4922 49.9273 23.77C49.6241 24.0384 49.4096 24.3779 49.2837 24.7888C49.1656 25.198 49.1562 25.6374 49.2552 26.1071C49.3543 26.5767 49.5405 26.9749 49.8138 27.3015C50.095 27.6264 50.4292 27.8543 50.8166 27.9852C51.2101 28.1066 51.6261 28.121 52.0644 28.0285ZM18.7356 45.08L13.5694 46.17C13.7518 46.8019 14.1082 47.2705 14.6386 47.5755C15.1673 47.8728 15.7722 47.9496 16.4532 47.8059C16.8368 47.725 17.175 47.5841 17.4678 47.3833C17.759 47.1747 17.994 46.9126 18.1727 46.5969L18.7563 47.0379C18.5517 47.4245 18.2601 47.7476 17.8816 48.0074C17.5109 48.2655 17.0789 48.4465 16.5858 48.5506C15.9517 48.6843 15.3601 48.6702 14.8108 48.5081C14.2677 48.3365 13.8087 48.0409 13.434 47.6212C13.0593 47.2015 12.8084 46.6903 12.6812 46.0875C12.5541 45.4848 12.5693 44.9175 12.7268 44.3855C12.8922 43.8518 13.1739 43.404 13.5717 43.0421C13.9774 42.6785 14.466 42.4365 15.0374 42.3159C15.6088 42.1954 16.1496 42.2203 16.6598 42.3906C17.1699 42.561 17.6045 42.8576 17.9636 43.2806C18.321 43.6958 18.5641 44.2087 18.6929 44.8192L18.7356 45.08ZM15.1885 43.0321C14.5936 43.1577 14.1331 43.4551 13.807 43.9246C13.487 44.3845 13.3641 44.9256 13.4381 45.5477L17.8177 44.6237C17.6341 44.0247 17.2991 43.5803 16.8128 43.2904C16.3327 42.9911 15.7912 42.905 15.1885 43.0321ZM22.7092 47.2587C22.2082 47.3644 21.7119 47.3955 21.2204 47.352C20.735 47.2991 20.34 47.1903 20.0355 47.0256L20.2725 46.2888C20.5737 46.4378 20.9341 46.5376 21.3535 46.5881C21.7713 46.6307 22.1916 46.6075 22.6143 46.5183C23.1779 46.3994 23.5746 46.2258 23.8044 45.9974C24.0404 45.7596 24.1245 45.4802 24.0568 45.1592C24.0089 44.9322 23.8974 44.7718 23.7222 44.6779C23.5454 44.5762 23.3369 44.518 23.0967 44.5033C22.8549 44.4808 22.5395 44.4778 22.1505 44.4944C21.6297 44.5062 21.2068 44.4973 20.8817 44.4678C20.5549 44.4305 20.2572 44.3175 19.9885 44.1289C19.7276 43.9386 19.5534 43.6361 19.4658 43.2212C19.3569 42.7046 19.4829 42.2365 19.8441 41.8169C20.2053 41.3973 20.7694 41.1066 21.5365 40.9447C21.9357 40.8605 22.3465 40.8311 22.7688 40.8564C23.1895 40.874 23.5472 40.9416 23.8418 41.0593L23.619 41.8054C23.0359 41.5605 22.3921 41.5123 21.6876 41.661C21.1553 41.7733 20.772 41.9523 20.5377 42.1979C20.3112 42.4419 20.2301 42.7166 20.2945 43.0219C20.3441 43.2567 20.4581 43.4289 20.6365 43.5384C20.8228 43.6463 21.0369 43.7115 21.2788 43.734C21.519 43.7488 21.8461 43.7492 22.2602 43.7355C22.7732 43.7253 23.1883 43.7359 23.5055 43.7671C23.8228 43.7982 24.1111 43.905 24.3703 44.0874C24.6295 44.2699 24.8013 44.5607 24.8855 44.9599C24.9995 45.5 24.8633 45.9784 24.477 46.3951C24.0969 46.8024 23.5076 47.0902 22.7092 47.2587ZM31.1188 38.9721L32.9024 47.426L32.0687 47.6019L31.3429 44.1617C31.1688 44.6154 30.9005 44.9908 30.5381 45.2881C30.1818 45.5758 29.7532 45.7725 29.2522 45.8782C28.6652 46.0021 28.1095 45.9844 27.5854 45.8252C27.0674 45.6565 26.625 45.3614 26.2581 44.9401C25.8912 44.5188 25.6425 43.9989 25.5121 43.3805C25.3832 42.77 25.4015 42.1979 25.5669 41.6642C25.7323 41.1306 26.0226 40.6851 26.4378 40.3277C26.8513 39.9624 27.3477 39.7187 27.9269 39.5965C28.4436 39.4875 28.9285 39.4997 29.3818 39.633C29.8429 39.7646 30.2416 40.0075 30.578 40.3617L30.3204 39.1406L31.1188 38.9721ZM29.1666 45.1236C29.5971 45.0328 29.964 44.8532 30.2671 44.5849C30.5764 44.307 30.7901 43.9635 30.9082 43.5543C31.0341 43.1435 31.0475 42.7032 30.9484 42.2336C30.8493 41.7639 30.66 41.3705 30.3805 41.0534C30.1072 40.7268 29.773 40.4989 29.3778 40.3696C28.9904 40.2388 28.5815 40.2188 28.151 40.3096C27.7126 40.4021 27.3388 40.5873 27.0295 40.8651C26.728 41.1413 26.5143 41.4848 26.3884 41.8956C26.2687 42.297 26.2584 42.7325 26.3574 43.2022C26.4565 43.6718 26.6427 44.07 26.916 44.3966C27.1972 44.7215 27.5314 44.9494 27.9188 45.0803C28.3123 45.2017 28.7283 45.2161 29.1666 45.1236ZM39.006 37.3081L40.309 43.4842L39.5106 43.6526L39.2727 42.5254C39.1328 42.9474 38.8934 43.3045 38.5544 43.5968C38.2138 43.8812 37.7969 44.0755 37.3038 44.1795C36.4975 44.3496 35.8125 44.2611 35.2487 43.914C34.6911 43.5575 34.3206 42.9447 34.1373 42.0759L33.3818 38.4947L34.2154 38.3188L34.9536 41.8178C35.0907 42.4675 35.3552 42.9268 35.7472 43.1957C36.1391 43.4645 36.6325 43.5362 37.2274 43.4107C37.8771 43.2736 38.3486 42.9698 38.6417 42.4991C38.9332 42.0206 39.0047 41.4292 38.856 40.7247L38.1723 37.484L39.006 37.3081ZM47.4244 39.0273L42.2581 40.1173C42.4405 40.7492 42.7969 41.2178 43.3273 41.5228C43.8561 41.8201 44.461 41.8969 45.142 41.7532C45.5255 41.6723 45.8637 41.5314 46.1566 41.3306C46.4478 41.122 46.6827 40.8599 46.8614 40.5442L47.445 40.9852C47.2404 41.3718 46.9489 41.6949 46.5703 41.9547C46.1996 42.2128 45.7677 42.3938 45.2746 42.4979C44.6405 42.6316 44.0488 42.6175 43.4995 42.4554C42.9564 42.2838 42.4975 41.9882 42.1228 41.5685C41.7481 41.1488 41.4972 40.6376 41.37 40.0348C41.2428 39.4321 41.258 38.8647 41.4156 38.3328C41.581 37.7991 41.8626 37.3513 42.2605 36.9894C42.6662 36.6258 43.1547 36.3838 43.7262 36.2632C44.2976 36.1427 44.8384 36.1676 45.3485 36.3379C45.8587 36.5083 46.2933 36.8049 46.6523 37.2279C47.0097 37.6431 47.2528 38.156 47.3817 38.7665L47.4244 39.0273ZM43.8773 36.9794C43.2824 37.105 42.8219 37.4024 42.4957 37.8719C42.1758 38.3318 42.0528 38.8729 42.1269 39.495L46.5064 38.571C46.3228 37.972 45.9879 37.5275 45.5016 37.2377C45.0214 36.9384 44.48 36.8523 43.8773 36.9794ZM52.302 41.0152C51.6915 41.144 51.1155 41.1266 50.574 40.9628C50.0404 40.7974 49.5862 40.5049 49.2115 40.0852C48.8351 39.6577 48.5834 39.1425 48.4562 38.5398C48.329 37.9371 48.3521 37.3681 48.5253 36.8328C48.6985 36.2975 48.9958 35.8464 49.4171 35.4795C49.8463 35.111 50.3662 34.8623 50.9767 34.7335C51.509 34.6212 52.0049 34.627 52.4643 34.7508C52.93 34.8651 53.3262 35.0963 53.6531 35.4443L53.12 35.9983C52.8521 35.736 52.5459 35.5635 52.2014 35.4808C51.8552 35.3903 51.4982 35.3839 51.1303 35.4615C50.6841 35.5556 50.3025 35.7424 49.9853 36.0219C49.6744 36.2919 49.456 36.6323 49.3301 37.0432C49.212 37.4524 49.2025 37.8918 49.3016 38.3614C49.4023 38.8389 49.5893 39.241 49.8627 39.5676C50.1421 39.8847 50.4795 40.1079 50.8747 40.2371C51.276 40.3568 51.6998 40.3696 52.146 40.2755C52.5139 40.1979 52.8387 40.0517 53.1204 39.8369C53.4021 39.6221 53.6126 39.3406 53.7517 38.9924L54.4632 39.2838C54.3047 39.7342 54.0365 40.1097 53.6584 40.4102C53.2786 40.7029 52.8265 40.9046 52.302 41.0152ZM52.3415 43.6437C51.9579 43.7246 51.6102 43.704 51.2982 43.5817L51.4037 43.0934C51.6621 43.1943 51.9361 43.2141 52.2257 43.153C52.4605 43.1035 52.6307 43.0185 52.7361 42.8982C52.8415 42.7778 52.8752 42.6276 52.8373 42.4476C52.8026 42.2832 52.7119 42.1633 52.5652 42.088C52.4279 42.0188 52.238 42.0099 51.9953 42.0611L51.7253 42.118L51.7816 40.9901L52.2865 40.8836L52.2541 41.6017C52.5816 41.5653 52.8488 41.6112 53.0557 41.7392C53.2643 41.8751 53.3966 42.0761 53.4528 42.3422C53.5188 42.6554 53.4495 42.9275 53.2448 43.1588C53.0418 43.3978 52.7407 43.5595 52.3415 43.6437ZM57.1936 33.4219C57.9998 33.2518 58.6612 33.3248 59.1776 33.641C59.6923 33.9494 60.0331 34.4989 60.1999 35.2895L61.0075 39.1172L60.209 39.2857L60.0059 38.3229C59.8858 38.6835 59.6607 38.9926 59.3308 39.2502C59.0087 39.5062 58.5972 39.6871 58.0962 39.7928C57.4074 39.9381 56.8248 39.8893 56.3483 39.6464C55.8719 39.4035 55.5768 39.0121 55.4628 38.4719C55.3522 37.9475 55.4509 37.4852 55.7589 37.085C56.0747 36.6831 56.6475 36.3946 57.4772 36.2196L59.4381 35.8059L59.3588 35.4302C59.2465 34.8979 59.0127 34.5261 58.6575 34.3149C58.3006 34.0959 57.8364 34.0466 57.265 34.1672C56.8736 34.2498 56.5119 34.3956 56.1799 34.6046C55.8463 34.8058 55.5742 35.0472 55.3638 35.3287L54.8568 34.7856C55.1137 34.4534 55.4465 34.1707 55.8552 33.9373C56.2621 33.6961 56.7083 33.5243 57.1936 33.4219ZM58.0866 39.108C58.5563 39.0089 58.9371 38.8182 59.2291 38.5358C59.5195 38.2456 59.7039 37.8797 59.7824 37.438L59.5694 36.4282L57.632 36.8369C56.5753 37.0599 56.1245 37.5393 56.2798 38.2751C56.3557 38.6351 56.553 38.8919 56.8716 39.0455C57.1885 39.1912 57.5935 39.212 58.0866 39.108ZM70.1426 28.0899L71.9807 36.8021L71.1822 36.9706L70.9246 35.7495C70.7616 36.2172 70.4958 36.6044 70.1272 36.9111C69.7664 37.2161 69.3277 37.4232 68.8111 37.5322C68.2318 37.6544 67.6793 37.632 67.1535 37.4649C66.6277 37.2978 66.1813 37.0037 65.8145 36.5823C65.4476 36.161 65.1997 35.645 65.0709 35.0345C64.9421 34.4239 64.9604 33.8518 65.1258 33.3182C65.2912 32.7845 65.5815 32.339 65.9966 31.9816C66.4101 31.6164 66.9065 31.3727 67.4858 31.2504C67.9867 31.1448 68.4591 31.1555 68.9029 31.2826C69.3529 31.4002 69.7492 31.6314 70.0917 31.9761L69.3089 28.2658L70.1426 28.0899ZM68.7255 36.7776C69.156 36.6868 69.5228 36.5072 69.8259 36.2388C70.1353 35.961 70.3489 35.6175 70.467 35.2083C70.5929 34.7974 70.6063 34.3572 70.5072 33.8875C70.4081 33.4179 70.218 33.0205 69.9369 32.6956C69.6636 32.369 69.3302 32.145 68.9366 32.0236C68.5493 31.8927 68.1403 31.8727 67.7098 31.9636C67.2715 32.056 66.8976 32.2412 66.5883 32.519C66.2852 32.7874 66.0707 33.127 65.9448 33.5378C65.8267 33.947 65.8172 34.3864 65.9163 34.8561C66.0154 35.3258 66.2016 35.7239 66.4749 36.0505C66.756 36.3755 67.0903 36.6034 67.4776 36.7342C67.8712 36.8556 68.2871 36.8701 68.7255 36.7776ZM75.1499 29.6335C75.9561 29.4634 76.6175 29.5364 77.1339 29.8527C77.6486 30.161 77.9894 30.7105 78.1562 31.5011L78.9637 35.3289L78.1653 35.4973L77.9622 34.5345C77.842 34.8951 77.617 35.2042 77.2871 35.4618C76.965 35.7178 76.5535 35.8987 76.0525 36.0044C75.3636 36.1497 74.781 36.1009 74.3046 35.8581C73.8282 35.6152 73.5331 35.2237 73.4191 34.6836C73.3085 34.1591 73.4071 33.6968 73.7152 33.2966C74.031 32.8947 74.6038 32.6063 75.4335 32.4312L77.3944 32.0175L77.3151 31.6418C77.2028 31.1095 76.969 30.7377 76.6138 30.5265C76.2569 30.3075 75.7927 30.2583 75.2213 30.3788C74.8299 30.4614 74.4682 30.6072 74.1362 30.8162C73.8025 31.0174 73.5305 31.2588 73.3201 31.5403L72.8131 30.9973C73.07 30.6651 73.4028 30.3823 73.8114 30.1489C74.2184 29.9077 74.6646 29.7359 75.1499 29.6335ZM76.0429 35.3196C76.5126 35.2205 76.8934 35.0298 77.1854 34.7474C77.4758 34.4573 77.6602 34.0913 77.7387 33.6496L77.5257 32.6398L75.5883 33.0485C74.5316 33.2715 74.0808 33.7509 74.2361 34.4867C74.312 34.8467 74.5093 35.1036 74.8278 35.2571C75.1447 35.4028 75.5498 35.4237 76.0429 35.3196ZM29.8334 51.4584C30.6084 51.2949 31.2621 51.39 31.7946 51.7437C32.3349 52.0958 32.6967 52.7062 32.88 53.5751L33.6355 57.1563L32.8019 57.3322L32.0637 53.8332C31.9283 53.1913 31.6685 52.7351 31.2844 52.4646C30.9081 52.1924 30.4381 52.1158 29.8746 52.2347C29.2327 52.3701 28.7699 52.6762 28.4862 53.153C28.2009 53.622 28.1317 54.2049 28.2787 54.9015L28.9624 58.1422L28.1288 58.3181L27.3906 54.8191C27.2551 54.1772 26.9954 53.721 26.6113 53.4505C26.235 53.1783 25.7611 53.1025 25.1897 53.2231C24.5556 53.3568 24.0929 53.663 23.8014 54.1414C23.516 54.6104 23.4469 55.1933 23.5938 55.8899L24.2776 59.1306L23.4439 59.3065L22.1409 53.1304L22.9393 52.962L23.1771 54.0892C23.317 53.6672 23.5612 53.3132 23.9097 53.0271C24.2581 52.741 24.6867 52.5443 25.1955 52.4369C25.7122 52.3279 26.1814 52.3434 26.6034 52.4833C27.0332 52.6215 27.3875 52.8861 27.6662 53.277C27.8073 52.8221 28.0652 52.4365 28.4401 52.1203C28.821 51.7947 29.2855 51.574 29.8334 51.4584ZM36.7439 50.0005C37.5501 49.8304 38.2114 49.9034 38.7278 50.2196C39.2426 50.528 39.5834 51.0775 39.7502 51.8681L40.5577 55.6958L39.7593 55.8643L39.5562 54.9015C39.436 55.2621 39.211 55.5712 38.8811 55.8288C38.559 56.0848 38.1474 56.2657 37.6465 56.3714C36.9576 56.5167 36.375 56.4679 35.8986 56.225C35.4222 55.9822 35.127 55.5907 35.0131 55.0505C34.9024 54.5261 35.0011 54.0638 35.3091 53.6636C35.625 53.2617 36.1978 52.9732 37.0275 52.7982L38.9884 52.3845L38.9091 52.0088C38.7968 51.4765 38.563 51.1047 38.2077 50.8935C37.8508 50.6745 37.3867 50.6252 36.8153 50.7458C36.4239 50.8284 36.0622 50.9742 35.7302 51.1832C35.3965 51.3844 35.1245 51.6258 34.9141 51.9073L34.4071 51.3643C34.664 51.0321 34.9968 50.7493 35.4054 50.5159C35.8124 50.2747 36.2585 50.1029 36.7439 50.0005ZM37.6369 55.6866C38.1066 55.5875 38.4874 55.3968 38.7794 55.1144C39.0698 54.8242 39.2542 54.4583 39.3327 54.0166L39.1196 53.0068L37.1823 53.4155C36.1256 53.6385 35.6748 54.1179 35.83 54.8537C35.906 55.2137 36.1033 55.4705 36.4218 55.6241C36.7387 55.7698 37.1438 55.7906 37.6369 55.6866ZM37.1123 47.4454L38.2278 47.21L36.6328 49.0673L35.8109 49.2407L37.1123 47.4454ZM44.49 54.9276C43.989 55.0332 43.4927 55.0644 43.0012 55.0209C42.5158 54.968 42.1208 54.8592 41.8162 54.6945L42.0533 53.9577C42.3545 54.1067 42.7149 54.2065 43.1343 54.257C43.5521 54.2996 43.9724 54.2764 44.3951 54.1872C44.9587 54.0683 45.3554 53.8947 45.5852 53.6663C45.8212 53.4285 45.9053 53.1491 45.8376 52.8281C45.7897 52.6011 45.6782 52.4407 45.503 52.3468C45.3262 52.2451 45.1177 52.1869 44.8775 52.1722C44.6356 52.1496 44.3202 52.1467 43.9313 52.1633C43.4105 52.1751 42.9876 52.1662 42.6625 52.1367C42.3357 52.0993 42.038 51.9864 41.7693 51.7978C41.5084 51.6075 41.3342 51.305 41.2466 50.8901C41.1376 50.3735 41.2637 49.9054 41.6249 49.4858C41.986 49.0662 42.5502 48.7755 43.3173 48.6136C43.7165 48.5294 44.1273 48.5 44.5496 48.5253C44.9703 48.5429 45.3279 48.6105 45.6226 48.7282L45.3998 49.4743C44.8167 49.2294 44.1729 49.1812 43.4684 49.3299C42.9361 49.4422 42.5528 49.6212 42.3185 49.8668C42.092 50.1108 42.0109 50.3855 42.0753 50.6908C42.1249 50.9256 42.2389 51.0978 42.4173 51.2073C42.6036 51.3152 42.8177 51.3804 43.0595 51.4029C43.2998 51.4177 43.6269 51.4181 44.041 51.4044C44.5539 51.3942 44.969 51.4048 45.2863 51.436C45.6036 51.4671 45.8918 51.5739 46.1511 51.7563C46.4103 51.9387 46.5821 52.2296 46.6663 52.6288C46.7802 53.1689 46.6441 53.6473 46.2578 54.064C45.8776 54.4713 45.2884 54.7591 44.49 54.9276ZM51.1387 53.5248C50.5281 53.6536 49.9521 53.6362 49.4106 53.4724C48.877 53.307 48.4228 53.0145 48.0481 52.5948C47.6718 52.1673 47.42 51.6521 47.2928 51.0494C47.1657 50.4467 47.1887 49.8777 47.3619 49.3424C47.5352 48.8071 47.8324 48.356 48.2538 47.9891C48.683 47.6206 49.2028 47.3719 49.8134 47.2431C50.3457 47.1308 50.8415 47.1366 51.301 47.2604C51.7666 47.3747 52.1629 47.6059 52.4898 47.9539L51.9566 48.5079C51.6887 48.2456 51.3825 48.0731 51.038 47.9904C50.6919 47.8999 50.3349 47.8935 49.967 47.9711C49.5208 48.0652 49.1391 48.252 48.822 48.5315C48.511 48.8015 48.2926 49.1419 48.1667 49.5528C48.0486 49.962 48.0391 50.4014 48.1382 50.8711C48.239 51.3485 48.426 51.7506 48.6993 52.0772C48.9788 52.3943 49.3161 52.6175 49.7113 52.7467C50.1127 52.8664 50.5364 52.8792 50.9826 52.7851C51.3505 52.7075 51.6753 52.5613 51.9571 52.3465C52.2388 52.1317 52.4492 51.8502 52.5883 51.502L53.2998 51.7934C53.1414 52.2438 52.8731 52.6193 52.495 52.9198C52.1152 53.2125 51.6631 53.4142 51.1387 53.5248ZM56.0302 45.9315C56.8365 45.7614 57.4978 45.8344 58.0142 46.1506C58.529 46.459 58.8697 47.0085 59.0365 47.7991L59.8441 51.6268L59.0457 51.7953L58.8425 50.8325C58.7224 51.1931 58.4974 51.5022 58.1674 51.7598C57.8454 52.0158 57.4338 52.1967 56.9328 52.3024C56.244 52.4477 55.6614 52.3989 55.185 52.156C54.7086 51.9132 54.4134 51.5217 54.2995 50.9815C54.1888 50.4571 54.2875 49.9948 54.5955 49.5946C54.9114 49.1927 55.4842 48.9042 56.3139 48.7292L58.2747 48.3155L58.1955 47.9398C58.0832 47.4075 57.8494 47.0357 57.4941 46.8245C57.1372 46.6055 56.6731 46.5562 56.1016 46.6768C55.7103 46.7594 55.3486 46.9052 55.0166 47.1142C54.6829 47.3154 54.4109 47.5568 54.2005 47.8383L53.6934 47.2953C53.9504 46.9631 54.2832 46.6803 54.6918 46.4469C55.0988 46.2057 55.5449 46.0339 56.0302 45.9315ZM56.9233 51.6176C57.3929 51.5185 57.7738 51.3278 58.0658 51.0454C58.3561 50.7552 58.5406 50.3893 58.6191 49.9476L58.406 48.9378L56.4687 49.3465C55.4119 49.5695 54.9612 50.0489 55.1164 50.7847C55.1924 51.1447 55.3896 51.4015 55.7082 51.5551C56.0251 51.7008 56.4301 51.7216 56.9233 51.6176ZM61.8589 46.014C61.9671 45.5579 62.1907 45.1836 62.5296 44.8914C62.8764 44.5975 63.3355 44.3902 63.907 44.2697L64.0779 45.0798L63.8758 45.1102C63.2261 45.2473 62.7594 45.5542 62.4758 46.0311C62.1921 46.5079 62.1262 47.1064 62.2781 47.8265L62.942 50.9732L62.1084 51.1491L60.8054 44.9731L61.6038 44.8046L61.8589 46.014ZM67.5654 43.4978C68.3716 43.3277 69.0329 43.4008 69.5493 43.717C70.0641 44.0254 70.4049 44.5749 70.5717 45.3654L71.3792 49.1932L70.5808 49.3616L70.3777 48.3988C70.2575 48.7594 70.0325 49.0685 69.7026 49.3262C69.3805 49.5822 68.969 49.763 68.468 49.8687C67.7791 50.014 67.1965 49.9653 66.7201 49.7224C66.2437 49.4795 65.9485 49.088 65.8346 48.5479C65.7239 48.0234 65.8226 47.5611 66.1307 47.1609C66.4465 46.759 67.0193 46.4706 67.849 46.2955L69.8099 45.8818L69.7306 45.5061C69.6183 44.9738 69.3845 44.6021 69.0293 44.3909C68.6724 44.1718 68.2082 44.1226 67.6368 44.2431C67.2454 44.3257 66.8837 44.4715 66.5517 44.6806C66.218 44.8818 65.946 45.1231 65.7356 45.4046L65.2286 44.8616C65.4855 44.5294 65.8183 44.2466 66.2269 44.0132C66.6339 43.772 67.0801 43.6002 67.5654 43.4978ZM68.4584 49.1839C68.9281 49.0849 69.3089 48.8941 69.6009 48.6118C69.8913 48.3216 70.0757 47.9556 70.1542 47.5139L69.9411 46.5041L68.0038 46.9129C66.9471 47.1358 66.4963 47.6152 66.6515 48.351C66.7275 48.7111 66.9248 48.9679 67.2433 49.1214C67.5602 49.2671 67.9653 49.288 68.4584 49.1839ZM71.7803 40.5237L72.7666 40.3156L73.8043 46.1061L73.1585 46.2423L71.7803 40.5237ZM74.0199 48.6974C73.8477 48.7337 73.6866 48.7064 73.5366 48.6154C73.3927 48.5149 73.3035 48.3825 73.2688 48.2181C73.2324 48.0459 73.2614 47.8926 73.3557 47.7583C73.4484 47.6161 73.5847 47.526 73.7647 47.488C73.9369 47.4517 74.0941 47.4798 74.2363 47.5725C74.3769 47.6573 74.4653 47.7858 74.5016 47.958C74.5363 48.1224 74.5082 48.2796 74.4172 48.4296C74.3245 48.5718 74.1921 48.6611 74.0199 48.6974Z" fill="#36357E"/>
<defs>
<clipPath id="clip0">
<rect width="88" height="88" fill="white" transform="translate(0 7.29102)"/>
</clipPath>
</defs>
</svg>
