<svg width="300" height="250" viewBox="0 0 320 267" fill="none" xmlns="http://www.w3.org/2000/svg">
<g filter="url(#filter0_d)">
<rect x="40" y="24" width="240.223" height="215" rx="20" fill="white"/>
</g>
<path d="M104.046 215.66C103.214 215.66 102.414 215.527 101.646 215.26C100.889 214.994 100.302 214.642 99.8861 214.204L100.35 213.292C100.755 213.698 101.294 214.028 101.966 214.284C102.638 214.53 103.331 214.652 104.046 214.652C105.049 214.652 105.801 214.471 106.302 214.108C106.803 213.735 107.054 213.255 107.054 212.668C107.054 212.22 106.915 211.863 106.638 211.596C106.371 211.33 106.041 211.127 105.646 210.988C105.251 210.839 104.702 210.679 103.998 210.508C103.155 210.295 102.483 210.092 101.982 209.9C101.481 209.698 101.049 209.394 100.686 208.988C100.334 208.583 100.158 208.034 100.158 207.34C100.158 206.775 100.307 206.263 100.606 205.804C100.905 205.335 101.363 204.962 101.982 204.684C102.601 204.407 103.369 204.268 104.286 204.268C104.926 204.268 105.55 204.359 106.158 204.54C106.777 204.711 107.31 204.951 107.758 205.26L107.358 206.204C106.889 205.895 106.387 205.666 105.854 205.516C105.321 205.356 104.798 205.276 104.286 205.276C103.305 205.276 102.563 205.468 102.062 205.852C101.571 206.226 101.326 206.711 101.326 207.308C101.326 207.756 101.459 208.119 101.726 208.396C102.003 208.663 102.345 208.871 102.75 209.02C103.166 209.159 103.721 209.314 104.414 209.484C105.235 209.687 105.897 209.89 106.398 210.092C106.91 210.284 107.342 210.583 107.694 210.988C108.046 211.383 108.222 211.922 108.222 212.604C108.222 213.17 108.067 213.687 107.758 214.156C107.459 214.615 106.995 214.983 106.366 215.26C105.737 215.527 104.963 215.66 104.046 215.66ZM113.506 207.084C114.605 207.084 115.447 207.362 116.034 207.916C116.621 208.46 116.914 209.271 116.914 210.348V215.564H115.826V214.252C115.57 214.69 115.191 215.031 114.69 215.276C114.199 215.522 113.613 215.644 112.93 215.644C111.991 215.644 111.245 215.42 110.69 214.972C110.135 214.524 109.858 213.932 109.858 213.196C109.858 212.482 110.114 211.906 110.626 211.468C111.149 211.031 111.975 210.812 113.106 210.812H115.778V210.3C115.778 209.575 115.575 209.026 115.17 208.652C114.765 208.268 114.173 208.076 113.394 208.076C112.861 208.076 112.349 208.167 111.858 208.348C111.367 208.519 110.946 208.759 110.594 209.068L110.082 208.22C110.509 207.858 111.021 207.58 111.618 207.388C112.215 207.186 112.845 207.084 113.506 207.084ZM113.106 214.748C113.746 214.748 114.295 214.604 114.754 214.316C115.213 214.018 115.554 213.591 115.778 213.036V211.66H113.138C111.698 211.66 110.978 212.162 110.978 213.164C110.978 213.655 111.165 214.044 111.538 214.332C111.911 214.61 112.434 214.748 113.106 214.748ZM119.999 203.692H121.135V215.564H119.999V203.692ZM127.24 207.084C128.339 207.084 129.182 207.362 129.768 207.916C130.355 208.46 130.648 209.271 130.648 210.348V215.564H129.56V214.252C129.304 214.69 128.926 215.031 128.424 215.276C127.934 215.522 127.347 215.644 126.664 215.644C125.726 215.644 124.979 215.42 124.424 214.972C123.87 214.524 123.592 213.932 123.592 213.196C123.592 212.482 123.848 211.906 124.36 211.468C124.883 211.031 125.71 210.812 126.84 210.812H129.512V210.3C129.512 209.575 129.31 209.026 128.904 208.652C128.499 208.268 127.907 208.076 127.128 208.076C126.595 208.076 126.083 208.167 125.592 208.348C125.102 208.519 124.68 208.759 124.328 209.068L123.816 208.22C124.243 207.858 124.755 207.58 125.352 207.388C125.95 207.186 126.579 207.084 127.24 207.084ZM126.84 214.748C127.48 214.748 128.03 214.604 128.488 214.316C128.947 214.018 129.288 213.591 129.512 213.036V211.66H126.872C125.432 211.66 124.712 212.162 124.712 213.164C124.712 213.655 124.899 214.044 125.272 214.332C125.646 214.61 126.168 214.748 126.84 214.748ZM145.601 203.692V215.564H144.513V213.9C144.172 214.466 143.719 214.898 143.153 215.196C142.599 215.495 141.969 215.644 141.265 215.644C140.476 215.644 139.761 215.463 139.121 215.1C138.481 214.738 137.98 214.231 137.617 213.58C137.255 212.93 137.073 212.188 137.073 211.356C137.073 210.524 137.255 209.783 137.617 209.132C137.98 208.482 138.481 207.98 139.121 207.628C139.761 207.266 140.476 207.084 141.265 207.084C141.948 207.084 142.561 207.228 143.105 207.516C143.66 207.794 144.113 208.204 144.465 208.748V203.692H145.601ZM141.361 214.636C141.948 214.636 142.476 214.503 142.945 214.236C143.425 213.959 143.799 213.57 144.065 213.068C144.343 212.567 144.481 211.996 144.481 211.356C144.481 210.716 144.343 210.146 144.065 209.644C143.799 209.143 143.425 208.759 142.945 208.492C142.476 208.215 141.948 208.076 141.361 208.076C140.764 208.076 140.225 208.215 139.745 208.492C139.276 208.759 138.903 209.143 138.625 209.644C138.359 210.146 138.225 210.716 138.225 211.356C138.225 211.996 138.359 212.567 138.625 213.068C138.903 213.57 139.276 213.959 139.745 214.236C140.225 214.503 140.764 214.636 141.361 214.636ZM156.093 211.708H149.053C149.117 212.583 149.453 213.292 150.061 213.836C150.669 214.37 151.437 214.636 152.365 214.636C152.888 214.636 153.368 214.546 153.805 214.364C154.242 214.172 154.621 213.895 154.941 213.532L155.581 214.268C155.208 214.716 154.738 215.058 154.173 215.292C153.618 215.527 153.005 215.644 152.333 215.644C151.469 215.644 150.701 215.463 150.029 215.1C149.368 214.727 148.85 214.215 148.477 213.564C148.104 212.914 147.917 212.178 147.917 211.356C147.917 210.535 148.093 209.799 148.445 209.148C148.808 208.498 149.298 207.991 149.917 207.628C150.546 207.266 151.25 207.084 152.029 207.084C152.808 207.084 153.506 207.266 154.125 207.628C154.744 207.991 155.229 208.498 155.581 209.148C155.933 209.788 156.109 210.524 156.109 211.356L156.093 211.708ZM152.029 208.06C151.218 208.06 150.536 208.322 149.981 208.844C149.437 209.356 149.128 210.028 149.053 210.86H155.021C154.946 210.028 154.632 209.356 154.077 208.844C153.533 208.322 152.85 208.06 152.029 208.06ZM163.697 208.796C163.963 208.231 164.358 207.804 164.881 207.516C165.414 207.228 166.07 207.084 166.849 207.084V208.188L166.577 208.172C165.691 208.172 164.998 208.444 164.497 208.988C163.995 209.532 163.745 210.295 163.745 211.276V215.564H162.609V207.148H163.697V208.796ZM176.156 211.708H169.115C169.179 212.583 169.515 213.292 170.123 213.836C170.731 214.37 171.499 214.636 172.427 214.636C172.95 214.636 173.43 214.546 173.868 214.364C174.305 214.172 174.683 213.895 175.003 213.532L175.644 214.268C175.27 214.716 174.801 215.058 174.235 215.292C173.681 215.527 173.068 215.644 172.396 215.644C171.532 215.644 170.763 215.463 170.091 215.1C169.43 214.727 168.913 214.215 168.539 213.564C168.166 212.914 167.979 212.178 167.979 211.356C167.979 210.535 168.155 209.799 168.507 209.148C168.87 208.498 169.361 207.991 169.979 207.628C170.609 207.266 171.313 207.084 172.091 207.084C172.87 207.084 173.569 207.266 174.188 207.628C174.806 207.991 175.292 208.498 175.644 209.148C175.996 209.788 176.172 210.524 176.172 211.356L176.156 211.708ZM172.091 208.06C171.281 208.06 170.598 208.322 170.043 208.844C169.499 209.356 169.19 210.028 169.115 210.86H175.083C175.009 210.028 174.694 209.356 174.14 208.844C173.596 208.322 172.913 208.06 172.091 208.06ZM186.068 207.148V215.564H184.98V214.028C184.681 214.54 184.27 214.94 183.748 215.228C183.225 215.506 182.628 215.644 181.956 215.644C180.857 215.644 179.988 215.34 179.348 214.732C178.718 214.114 178.404 213.212 178.404 212.028V207.148H179.54V211.916C179.54 212.802 179.758 213.474 180.196 213.932C180.633 214.391 181.257 214.62 182.068 214.62C182.953 214.62 183.652 214.354 184.164 213.82C184.676 213.276 184.932 212.524 184.932 211.564V207.148H186.068ZM193.537 207.084C194.593 207.084 195.431 207.394 196.049 208.012C196.679 208.62 196.993 209.511 196.993 210.684V215.564H195.857V210.796C195.857 209.922 195.639 209.255 195.201 208.796C194.764 208.338 194.14 208.108 193.329 208.108C192.423 208.108 191.703 208.38 191.169 208.924C190.647 209.458 190.385 210.199 190.385 211.148V215.564H189.249V207.148H190.337V208.7C190.647 208.188 191.073 207.794 191.617 207.516C192.172 207.228 192.812 207.084 193.537 207.084ZM200.077 207.148H201.213V215.564H200.077V207.148ZM200.653 205.308C200.419 205.308 200.221 205.228 200.061 205.068C199.901 204.908 199.821 204.716 199.821 204.492C199.821 204.279 199.901 204.092 200.061 203.932C200.221 203.772 200.419 203.692 200.653 203.692C200.888 203.692 201.085 203.772 201.245 203.932C201.405 204.082 201.485 204.263 201.485 204.476C201.485 204.711 201.405 204.908 201.245 205.068C201.085 205.228 200.888 205.308 200.653 205.308ZM207.318 207.084C208.417 207.084 209.26 207.362 209.846 207.916C210.433 208.46 210.726 209.271 210.726 210.348V215.564H209.638V214.252C209.382 214.69 209.004 215.031 208.502 215.276C208.012 215.522 207.425 215.644 206.742 215.644C205.804 215.644 205.057 215.42 204.502 214.972C203.948 214.524 203.67 213.932 203.67 213.196C203.67 212.482 203.926 211.906 204.438 211.468C204.961 211.031 205.788 210.812 206.918 210.812H209.59V210.3C209.59 209.575 209.388 209.026 208.982 208.652C208.577 208.268 207.985 208.076 207.206 208.076C206.673 208.076 206.161 208.167 205.67 208.348C205.18 208.519 204.758 208.759 204.406 209.068L203.894 208.22C204.321 207.858 204.833 207.58 205.43 207.388C206.028 207.186 206.657 207.084 207.318 207.084ZM206.918 214.748C207.558 214.748 208.108 214.604 208.566 214.316C209.025 214.018 209.366 213.591 209.59 213.036V211.66H206.95C205.51 211.66 204.79 212.162 204.79 213.164C204.79 213.655 204.977 214.044 205.35 214.332C205.724 214.61 206.246 214.748 206.918 214.748ZM208.438 205.74C208.193 205.74 207.974 205.687 207.782 205.58C207.59 205.463 207.382 205.303 207.158 205.1C206.966 204.94 206.812 204.828 206.694 204.764C206.588 204.69 206.47 204.652 206.342 204.652C206.097 204.652 205.9 204.743 205.75 204.924C205.601 205.106 205.521 205.356 205.51 205.676H204.822C204.844 205.143 204.982 204.716 205.238 204.396C205.494 204.076 205.836 203.916 206.262 203.916C206.508 203.916 206.721 203.97 206.902 204.076C207.094 204.183 207.313 204.343 207.558 204.556C207.729 204.706 207.873 204.818 207.99 204.892C208.108 204.967 208.23 205.004 208.358 205.004C208.593 205.004 208.785 204.919 208.934 204.748C209.084 204.567 209.169 204.322 209.19 204.012H209.878C209.857 204.535 209.718 204.956 209.462 205.276C209.206 205.586 208.865 205.74 208.438 205.74ZM217.283 215.644C216.472 215.644 215.742 215.463 215.091 215.1C214.44 214.727 213.928 214.215 213.555 213.564C213.182 212.914 212.995 212.178 212.995 211.356C212.995 210.535 213.182 209.799 213.555 209.148C213.928 208.498 214.44 207.991 215.091 207.628C215.742 207.266 216.472 207.084 217.283 207.084C218.094 207.084 218.824 207.266 219.475 207.628C220.126 207.991 220.632 208.498 220.995 209.148C221.368 209.799 221.555 210.535 221.555 211.356C221.555 212.178 221.368 212.914 220.995 213.564C220.632 214.215 220.126 214.727 219.475 215.1C218.824 215.463 218.094 215.644 217.283 215.644ZM217.283 214.636C217.88 214.636 218.414 214.503 218.883 214.236C219.363 213.959 219.736 213.57 220.003 213.068C220.27 212.567 220.403 211.996 220.403 211.356C220.403 210.716 220.27 210.146 220.003 209.644C219.736 209.143 219.363 208.759 218.883 208.492C218.414 208.215 217.88 208.076 217.283 208.076C216.686 208.076 216.147 208.215 215.667 208.492C215.198 208.759 214.824 209.143 214.547 209.644C214.28 210.146 214.147 210.716 214.147 211.356C214.147 211.996 214.28 212.567 214.547 213.068C214.824 213.57 215.198 213.959 215.667 214.236C216.147 214.503 216.686 214.636 217.283 214.636Z" fill="black" fill-opacity="0.8"/>
<path d="M140.015 136.329L134.463 135.479L133.023 120.178C132.599 113.378 126.794 108.192 120.014 108.617C113.234 109.043 108.064 114.865 108.488 121.751L110.013 137.774C110.31 142.62 113.403 146.827 117.895 148.528C119.082 149.123 120.395 149.378 121.751 149.335L133.404 149.888C134.591 149.93 135.565 149.038 135.608 147.89C135.65 146.742 134.76 145.722 133.616 145.68L121.836 145.127C121.751 145.127 121.709 145.127 121.624 145.127C120.946 145.17 120.31 145.042 119.717 144.745C119.632 144.702 119.548 144.66 119.463 144.66C116.454 143.555 114.378 140.75 114.166 137.477L112.683 121.411C112.429 116.948 115.819 113.123 120.268 112.825C124.76 112.57 128.531 115.97 128.828 120.476L130.353 136.499C130.353 136.754 130.353 136.967 130.353 137.222C130.311 138.284 131.074 139.177 132.133 139.347L139.379 140.495C140.269 140.622 140.904 141.387 140.904 142.28V160.003C140.904 161.151 141.837 162.128 143.023 162.128C144.167 162.128 145.142 161.193 145.142 160.003V142.28C145.057 139.304 142.938 136.797 140.015 136.329Z" fill="black"/>
<path d="M121.497 103.772C127.556 103.772 132.514 98.7994 132.514 92.7215C132.514 86.6436 127.556 81.6708 121.497 81.6708C115.437 81.6708 110.48 86.6436 110.48 92.7215C110.48 98.7994 115.437 103.772 121.497 103.772ZM121.497 85.8785C125.268 85.8785 128.319 88.9387 128.319 92.7215C128.319 96.5042 125.268 99.5644 121.497 99.5644C117.726 99.5644 114.675 96.5042 114.675 92.7215C114.675 88.9387 117.768 85.8785 121.497 85.8785Z" fill="black"/>
<path d="M201.373 108.617C194.635 108.192 188.788 113.378 188.364 120.093L186.923 135.479L181.372 136.329C178.448 136.797 176.287 139.305 176.287 142.28V160.003C176.287 161.151 177.219 162.128 178.406 162.128C179.592 162.128 180.525 161.193 180.525 160.003V142.28C180.525 141.387 181.16 140.665 182.05 140.495L189.296 139.347C190.355 139.177 191.118 138.284 191.076 137.222C191.076 136.967 191.076 136.754 191.076 136.584L192.601 120.433C192.856 115.97 196.669 112.57 201.161 112.825C205.61 113.08 209 116.948 208.746 121.326L207.22 137.477C207.009 140.665 204.975 143.47 201.966 144.575C201.881 144.617 201.797 144.66 201.712 144.66C201.119 144.957 200.483 145.085 199.805 145.042C199.72 145.042 199.635 145.042 199.593 145.042L187.813 145.595C186.669 145.637 185.737 146.657 185.821 147.805C185.864 148.953 186.838 149.888 188.025 149.803L199.678 149.25C200.991 149.293 202.347 149.038 203.534 148.443C208.026 146.7 211.119 142.492 211.416 137.732L212.941 121.581C213.322 114.865 208.153 109 201.373 108.617Z" fill="black"/>
<path d="M199.89 103.772C205.949 103.772 210.907 98.7994 210.907 92.7215C210.907 86.6436 205.949 81.6708 199.89 81.6708C193.83 81.6708 188.872 86.6436 188.872 92.7215C188.872 98.7994 193.788 103.772 199.89 103.772ZM199.89 85.8785C203.661 85.8785 206.712 88.9387 206.712 92.7215C206.712 96.5042 203.661 99.5644 199.89 99.5644C196.118 99.5644 193.067 96.5042 193.067 92.7215C193.067 88.9387 196.118 85.8785 199.89 85.8785Z" fill="black"/>
<path d="M182.431 98.5443V71.8951C182.431 70.6625 181.414 69.6425 180.186 69.6425H141.201C139.972 69.6425 138.955 70.6625 138.955 71.8951V98.5443C138.955 99.7769 139.972 100.797 141.201 100.797H152.091L159.21 107.937C159.634 108.362 160.142 108.575 160.693 108.575C161.244 108.575 161.753 108.362 162.176 107.937L169.295 100.797H180.186C181.457 100.797 182.431 99.7769 182.431 98.5443ZM178.236 96.5892H168.405C167.855 96.5892 167.304 96.8017 166.922 97.2268L160.693 103.475L154.464 97.1843C154.083 96.8017 153.532 96.5467 152.981 96.5467H143.15V73.8927H178.236V96.5892Z" fill="black"/>
<defs>
<filter id="filter0_d" x="0" y="0" width="320.223" height="295" filterUnits="userSpaceOnUse" color-interpolation-filters="sRGB">
<feFlood flood-opacity="0" result="BackgroundImageFix"/>
<feColorMatrix in="SourceAlpha" type="matrix" values="0 0 0 0 0 0 0 0 0 0 0 0 0 0 0 0 0 0 127 0" result="hardAlpha"/>
<feOffset dy="16"/>
<feGaussianBlur stdDeviation="20"/>
<feComposite in2="hardAlpha" operator="out"/>
<feColorMatrix type="matrix" values="0 0 0 0 0 0 0 0 0 0 0 0 0 0 0 0 0 0 0.15 0"/>
<feBlend mode="normal" in2="BackgroundImageFix" result="effect1_dropShadow"/>
<feBlend mode="normal" in="SourceGraphic" in2="effect1_dropShadow" result="shape"/>
</filter>
</defs>
</svg>
