<svg width="300" height="250" viewBox="0 0 321 267" fill="none" xmlns="http://www.w3.org/2000/svg">
<g filter="url(#filter0_d)">
<rect x="39.8882" y="24" width="240.223" height="215" rx="20" fill="white"/>
</g>
<path d="M204.842 120.304V75.262C204.842 74.4087 204.504 73.5904 203.904 72.987C203.303 72.3836 202.488 72.0447 201.639 72.0447H176.015C175.165 72.0447 174.351 72.3836 173.75 72.987C173.149 73.5904 172.812 74.4087 172.812 75.262V120.304H145.587V113.869H166.406C167.255 113.869 168.07 113.53 168.671 112.927C169.272 112.324 169.609 111.505 169.609 110.652V81.6965C169.609 80.8432 169.272 80.0249 168.671 79.4216C168.07 78.8182 167.255 78.4792 166.406 78.4792H118.361C117.512 78.4792 116.697 78.8182 116.096 79.4216C115.496 80.0249 115.158 80.8432 115.158 81.6965V110.652C115.158 111.505 115.496 112.324 116.096 112.927C116.697 113.53 117.512 113.869 118.361 113.869H139.181V120.304H115.158C114.309 120.304 113.494 120.643 112.893 121.246C112.293 121.85 111.955 122.668 111.955 123.521V133.173C111.955 134.026 112.293 134.845 112.893 135.448C113.494 136.051 114.309 136.39 115.158 136.39V158.911C115.158 159.764 115.496 160.583 116.096 161.186C116.697 161.79 117.512 162.128 118.361 162.128C119.211 162.128 120.025 161.79 120.626 161.186C121.227 160.583 121.564 159.764 121.564 158.911V152.477H198.436V158.911C198.436 159.764 198.773 160.583 199.374 161.186C199.975 161.79 200.789 162.128 201.639 162.128C202.488 162.128 203.303 161.79 203.904 161.186C204.504 160.583 204.842 159.764 204.842 158.911V136.39C205.691 136.39 206.506 136.051 207.107 135.448C207.707 134.845 208.045 134.026 208.045 133.173V123.521C208.045 122.668 207.707 121.85 207.107 121.246C206.506 120.643 205.691 120.304 204.842 120.304ZM121.564 84.9138H163.203V107.435H121.564V84.9138ZM179.218 78.4792H198.436V120.304H179.218V78.4792ZM118.361 126.738H201.639V129.956H118.361V126.738ZM198.436 146.042H121.564V136.39H198.436V146.042Z" fill="black"/>
<path d="M191.101 111.585C190.651 111.139 190.079 110.836 189.457 110.716C188.836 110.596 188.193 110.663 187.61 110.909C187.214 111.057 186.853 111.287 186.553 111.585C186.261 111.891 186.033 112.252 185.88 112.647C185.711 113.032 185.623 113.448 185.623 113.869C185.623 114.29 185.711 114.707 185.88 115.092C186.024 115.491 186.253 115.854 186.552 116.154C186.851 116.454 187.212 116.685 187.61 116.829C187.993 116.999 188.408 117.087 188.827 117.087C189.246 117.087 189.661 116.999 190.044 116.829C190.441 116.685 190.802 116.454 191.101 116.154C191.4 115.854 191.63 115.491 191.774 115.092C191.953 114.71 192.041 114.291 192.03 113.869C192.025 113.449 191.938 113.034 191.774 112.647C191.621 112.252 191.393 111.891 191.101 111.585Z" fill="black"/>
<path d="M195.233 94.5656H182.421V101H195.233V94.5656Z" fill="black"/>
<path d="M195.233 84.9138H182.421V91.3483H195.233V84.9138Z" fill="black"/>
<path d="M90.0409 214.54V215.564H82.1209V204.364H89.8009V205.388H83.3049V209.372H89.0969V210.38H83.3049V214.54H90.0409ZM94.715 215.644C94.0324 215.644 93.3764 215.548 92.747 215.356C92.1284 215.154 91.643 214.903 91.291 214.604L91.803 213.708C92.155 213.986 92.5977 214.215 93.131 214.396C93.6644 214.567 94.219 214.652 94.795 214.652C95.563 214.652 96.1284 214.535 96.491 214.3C96.8644 214.055 97.051 213.714 97.051 213.276C97.051 212.967 96.9497 212.727 96.747 212.556C96.5444 212.375 96.2884 212.242 95.979 212.156C95.6697 212.06 95.259 211.97 94.747 211.884C94.0644 211.756 93.515 211.628 93.099 211.5C92.683 211.362 92.3257 211.132 92.027 210.812C91.739 210.492 91.595 210.05 91.595 209.484C91.595 208.78 91.8884 208.204 92.475 207.756C93.0617 207.308 93.8777 207.084 94.923 207.084C95.467 207.084 96.011 207.159 96.555 207.308C97.099 207.447 97.547 207.634 97.899 207.868L97.403 208.78C96.7097 208.3 95.883 208.06 94.923 208.06C94.1977 208.06 93.6484 208.188 93.275 208.444C92.9124 208.7 92.731 209.036 92.731 209.452C92.731 209.772 92.8324 210.028 93.035 210.22C93.2484 210.412 93.5097 210.556 93.819 210.652C94.1284 210.738 94.555 210.828 95.099 210.924C95.771 211.052 96.3097 211.18 96.715 211.308C97.1204 211.436 97.467 211.655 97.755 211.964C98.043 212.274 98.187 212.7 98.187 213.244C98.187 213.98 97.8777 214.567 97.259 215.004C96.651 215.431 95.803 215.644 94.715 215.644ZM104.719 215.052C104.506 215.244 104.239 215.394 103.919 215.5C103.61 215.596 103.284 215.644 102.943 215.644C102.154 215.644 101.546 215.431 101.119 215.004C100.692 214.578 100.479 213.975 100.479 213.196V208.108H98.9752V207.148H100.479V205.308H101.615V207.148H104.175V208.108H101.615V213.132C101.615 213.634 101.738 214.018 101.983 214.284C102.239 214.54 102.602 214.668 103.071 214.668C103.306 214.668 103.53 214.631 103.743 214.556C103.967 214.482 104.159 214.375 104.319 214.236L104.719 215.052ZM109.731 207.084C110.83 207.084 111.672 207.362 112.259 207.916C112.846 208.46 113.139 209.271 113.139 210.348V215.564H112.051V214.252C111.795 214.69 111.416 215.031 110.915 215.276C110.424 215.522 109.838 215.644 109.155 215.644C108.216 215.644 107.47 215.42 106.915 214.972C106.36 214.524 106.083 213.932 106.083 213.196C106.083 212.482 106.339 211.906 106.851 211.468C107.374 211.031 108.2 210.812 109.331 210.812H112.003V210.3C112.003 209.575 111.8 209.026 111.395 208.652C110.99 208.268 110.398 208.076 109.619 208.076C109.086 208.076 108.574 208.167 108.083 208.348C107.592 208.519 107.171 208.759 106.819 209.068L106.307 208.22C106.734 207.858 107.246 207.58 107.843 207.388C108.44 207.186 109.07 207.084 109.731 207.084ZM109.331 214.748C109.971 214.748 110.52 214.604 110.979 214.316C111.438 214.018 111.779 213.591 112.003 213.036V211.66H109.363C107.923 211.66 107.203 212.162 107.203 213.164C107.203 213.655 107.39 214.044 107.763 214.332C108.136 214.61 108.659 214.748 109.331 214.748ZM119.744 215.644C118.912 215.644 118.165 215.463 117.504 215.1C116.853 214.738 116.341 214.231 115.968 213.58C115.595 212.919 115.408 212.178 115.408 211.356C115.408 210.535 115.595 209.799 115.968 209.148C116.341 208.498 116.853 207.991 117.504 207.628C118.165 207.266 118.912 207.084 119.744 207.084C120.469 207.084 121.115 207.228 121.68 207.516C122.256 207.794 122.709 208.204 123.04 208.748L122.192 209.324C121.915 208.908 121.563 208.599 121.136 208.396C120.709 208.183 120.245 208.076 119.744 208.076C119.136 208.076 118.587 208.215 118.096 208.492C117.616 208.759 117.237 209.143 116.96 209.644C116.693 210.146 116.56 210.716 116.56 211.356C116.56 212.007 116.693 212.583 116.96 213.084C117.237 213.575 117.616 213.959 118.096 214.236C118.587 214.503 119.136 214.636 119.744 214.636C120.245 214.636 120.709 214.535 121.136 214.332C121.563 214.13 121.915 213.82 122.192 213.404L123.04 213.98C122.709 214.524 122.256 214.94 121.68 215.228C121.104 215.506 120.459 215.644 119.744 215.644ZM119.072 219.084C118.549 219.084 118.101 218.962 117.728 218.716L118 218.108C118.309 218.311 118.661 218.412 119.056 218.412C119.376 218.412 119.621 218.348 119.792 218.22C119.963 218.092 120.048 217.906 120.048 217.66C120.048 217.436 119.963 217.255 119.792 217.116C119.632 216.988 119.387 216.924 119.056 216.924H118.688L119.072 215.468H119.76L119.52 216.396C119.957 216.439 120.293 216.572 120.528 216.796C120.763 217.031 120.88 217.33 120.88 217.692C120.88 218.119 120.715 218.455 120.384 218.7C120.053 218.956 119.616 219.084 119.072 219.084ZM128.216 207.084C129.314 207.084 130.157 207.362 130.744 207.916C131.33 208.46 131.624 209.271 131.624 210.348V215.564H130.536V214.252C130.28 214.69 129.901 215.031 129.4 215.276C128.909 215.522 128.322 215.644 127.64 215.644C126.701 215.644 125.954 215.42 125.4 214.972C124.845 214.524 124.568 213.932 124.568 213.196C124.568 212.482 124.824 211.906 125.336 211.468C125.858 211.031 126.685 210.812 127.816 210.812H130.488V210.3C130.488 209.575 130.285 209.026 129.88 208.652C129.474 208.268 128.882 208.076 128.104 208.076C127.57 208.076 127.058 208.167 126.568 208.348C126.077 208.519 125.656 208.759 125.304 209.068L124.792 208.22C125.218 207.858 125.73 207.58 126.328 207.388C126.925 207.186 127.554 207.084 128.216 207.084ZM127.816 214.748C128.456 214.748 129.005 214.604 129.464 214.316C129.922 214.018 130.264 213.591 130.488 213.036V211.66H127.848C126.408 211.66 125.688 212.162 125.688 213.164C125.688 213.655 125.874 214.044 126.248 214.332C126.621 214.61 127.144 214.748 127.816 214.748ZM129.336 205.74C129.09 205.74 128.872 205.687 128.68 205.58C128.488 205.463 128.28 205.303 128.056 205.1C127.864 204.94 127.709 204.828 127.592 204.764C127.485 204.69 127.368 204.652 127.24 204.652C126.994 204.652 126.797 204.743 126.648 204.924C126.498 205.106 126.418 205.356 126.408 205.676H125.72C125.741 205.143 125.88 204.716 126.136 204.396C126.392 204.076 126.733 203.916 127.16 203.916C127.405 203.916 127.618 203.97 127.8 204.076C127.992 204.183 128.21 204.343 128.456 204.556C128.626 204.706 128.77 204.818 128.888 204.892C129.005 204.967 129.128 205.004 129.256 205.004C129.49 205.004 129.682 204.919 129.832 204.748C129.981 204.567 130.066 204.322 130.088 204.012H130.776C130.754 204.535 130.616 204.956 130.36 205.276C130.104 205.586 129.762 205.74 129.336 205.74ZM138.18 215.644C137.37 215.644 136.639 215.463 135.988 215.1C135.338 214.727 134.826 214.215 134.452 213.564C134.079 212.914 133.892 212.178 133.892 211.356C133.892 210.535 134.079 209.799 134.452 209.148C134.826 208.498 135.338 207.991 135.988 207.628C136.639 207.266 137.37 207.084 138.18 207.084C138.991 207.084 139.722 207.266 140.372 207.628C141.023 207.991 141.53 208.498 141.892 209.148C142.266 209.799 142.452 210.535 142.452 211.356C142.452 212.178 142.266 212.914 141.892 213.564C141.53 214.215 141.023 214.727 140.372 215.1C139.722 215.463 138.991 215.644 138.18 215.644ZM138.18 214.636C138.778 214.636 139.311 214.503 139.78 214.236C140.26 213.959 140.634 213.57 140.9 213.068C141.167 212.567 141.3 211.996 141.3 211.356C141.3 210.716 141.167 210.146 140.9 209.644C140.634 209.143 140.26 208.759 139.78 208.492C139.311 208.215 138.778 208.076 138.18 208.076C137.583 208.076 137.044 208.215 136.564 208.492C136.095 208.759 135.722 209.143 135.444 209.644C135.178 210.146 135.044 210.716 135.044 211.356C135.044 211.996 135.178 212.567 135.444 213.068C135.722 213.57 136.095 213.959 136.564 214.236C137.044 214.503 137.583 214.636 138.18 214.636ZM156.639 203.692V215.564H155.551V213.9C155.21 214.466 154.756 214.898 154.191 215.196C153.636 215.495 153.007 215.644 152.303 215.644C151.514 215.644 150.799 215.463 150.159 215.1C149.519 214.738 149.018 214.231 148.655 213.58C148.292 212.93 148.111 212.188 148.111 211.356C148.111 210.524 148.292 209.783 148.655 209.132C149.018 208.482 149.519 207.98 150.159 207.628C150.799 207.266 151.514 207.084 152.303 207.084C152.986 207.084 153.599 207.228 154.143 207.516C154.698 207.794 155.151 208.204 155.503 208.748V203.692H156.639ZM152.399 214.636C152.986 214.636 153.514 214.503 153.983 214.236C154.463 213.959 154.836 213.57 155.103 213.068C155.38 212.567 155.519 211.996 155.519 211.356C155.519 210.716 155.38 210.146 155.103 209.644C154.836 209.143 154.463 208.759 153.983 208.492C153.514 208.215 152.986 208.076 152.399 208.076C151.802 208.076 151.263 208.215 150.783 208.492C150.314 208.759 149.94 209.143 149.663 209.644C149.396 210.146 149.263 210.716 149.263 211.356C149.263 211.996 149.396 212.567 149.663 213.068C149.94 213.57 150.314 213.959 150.783 214.236C151.263 214.503 151.802 214.636 152.399 214.636ZM167.131 211.708H160.091C160.155 212.583 160.491 213.292 161.099 213.836C161.707 214.37 162.475 214.636 163.403 214.636C163.925 214.636 164.405 214.546 164.843 214.364C165.28 214.172 165.659 213.895 165.979 213.532L166.619 214.268C166.245 214.716 165.776 215.058 165.211 215.292C164.656 215.527 164.043 215.644 163.371 215.644C162.507 215.644 161.739 215.463 161.067 215.1C160.405 214.727 159.888 214.215 159.515 213.564C159.141 212.914 158.955 212.178 158.955 211.356C158.955 210.535 159.131 209.799 159.483 209.148C159.845 208.498 160.336 207.991 160.955 207.628C161.584 207.266 162.288 207.084 163.067 207.084C163.845 207.084 164.544 207.266 165.163 207.628C165.781 207.991 166.267 208.498 166.619 209.148C166.971 209.788 167.147 210.524 167.147 211.356L167.131 211.708ZM163.067 208.06C162.256 208.06 161.573 208.322 161.019 208.844C160.475 209.356 160.165 210.028 160.091 210.86H166.059C165.984 210.028 165.669 209.356 165.115 208.844C164.571 208.322 163.888 208.06 163.067 208.06ZM178.079 215.052C177.865 215.244 177.599 215.394 177.279 215.5C176.969 215.596 176.644 215.644 176.303 215.644C175.513 215.644 174.905 215.431 174.479 215.004C174.052 214.578 173.839 213.975 173.839 213.196V208.108H172.335V207.148H173.839V205.308H174.975V207.148H177.535V208.108H174.975V213.132C174.975 213.634 175.097 214.018 175.343 214.284C175.599 214.54 175.961 214.668 176.431 214.668C176.665 214.668 176.889 214.631 177.103 214.556C177.327 214.482 177.519 214.375 177.679 214.236L178.079 215.052ZM181.235 208.796C181.501 208.231 181.896 207.804 182.419 207.516C182.952 207.228 183.608 207.084 184.387 207.084V208.188L184.115 208.172C183.229 208.172 182.536 208.444 182.035 208.988C181.533 209.532 181.283 210.295 181.283 211.276V215.564H180.147V207.148H181.235V208.796ZM189.372 207.084C190.47 207.084 191.313 207.362 191.9 207.916C192.486 208.46 192.78 209.271 192.78 210.348V215.564H191.692V214.252C191.436 214.69 191.057 215.031 190.556 215.276C190.065 215.522 189.478 215.644 188.796 215.644C187.857 215.644 187.11 215.42 186.556 214.972C186.001 214.524 185.724 213.932 185.724 213.196C185.724 212.482 185.98 211.906 186.492 211.468C187.014 211.031 187.841 210.812 188.972 210.812H191.644V210.3C191.644 209.575 191.441 209.026 191.036 208.652C190.63 208.268 190.038 208.076 189.26 208.076C188.726 208.076 188.214 208.167 187.724 208.348C187.233 208.519 186.812 208.759 186.46 209.068L185.948 208.22C186.374 207.858 186.886 207.58 187.484 207.388C188.081 207.186 188.71 207.084 189.372 207.084ZM188.972 214.748C189.612 214.748 190.161 214.604 190.62 214.316C191.078 214.018 191.42 213.591 191.644 213.036V211.66H189.004C187.564 211.66 186.844 212.162 186.844 213.164C186.844 213.655 187.03 214.044 187.404 214.332C187.777 214.61 188.3 214.748 188.972 214.748ZM200.201 207.084C200.991 207.084 201.705 207.266 202.345 207.628C202.985 207.98 203.487 208.482 203.849 209.132C204.212 209.783 204.393 210.524 204.393 211.356C204.393 212.188 204.212 212.93 203.849 213.58C203.487 214.231 202.985 214.738 202.345 215.1C201.705 215.463 200.991 215.644 200.201 215.644C199.497 215.644 198.863 215.495 198.297 215.196C197.743 214.898 197.295 214.466 196.953 213.9V215.564H195.865V203.692H197.001V208.748C197.353 208.204 197.801 207.794 198.345 207.516C198.9 207.228 199.519 207.084 200.201 207.084ZM200.121 214.636C200.708 214.636 201.241 214.503 201.721 214.236C202.201 213.959 202.575 213.57 202.841 213.068C203.119 212.567 203.257 211.996 203.257 211.356C203.257 210.716 203.119 210.146 202.841 209.644C202.575 209.143 202.201 208.759 201.721 208.492C201.241 208.215 200.708 208.076 200.121 208.076C199.524 208.076 198.985 208.215 198.505 208.492C198.036 208.759 197.663 209.143 197.385 209.644C197.119 210.146 196.985 210.716 196.985 211.356C196.985 211.996 197.119 212.567 197.385 213.068C197.663 213.57 198.036 213.959 198.505 214.236C198.985 214.503 199.524 214.636 200.121 214.636ZM209.606 207.084C210.705 207.084 211.547 207.362 212.134 207.916C212.721 208.46 213.014 209.271 213.014 210.348V215.564H211.926V214.252C211.67 214.69 211.291 215.031 210.79 215.276C210.299 215.522 209.713 215.644 209.03 215.644C208.091 215.644 207.345 215.42 206.79 214.972C206.235 214.524 205.958 213.932 205.958 213.196C205.958 212.482 206.214 211.906 206.726 211.468C207.249 211.031 208.075 210.812 209.206 210.812H211.878V210.3C211.878 209.575 211.675 209.026 211.27 208.652C210.865 208.268 210.273 208.076 209.494 208.076C208.961 208.076 208.449 208.167 207.958 208.348C207.467 208.519 207.046 208.759 206.694 209.068L206.182 208.22C206.609 207.858 207.121 207.58 207.718 207.388C208.315 207.186 208.945 207.084 209.606 207.084ZM209.206 214.748C209.846 214.748 210.395 214.604 210.854 214.316C211.313 214.018 211.654 213.591 211.878 213.036V211.66H209.238C207.798 211.66 207.078 212.162 207.078 213.164C207.078 213.655 207.265 214.044 207.638 214.332C208.011 214.61 208.534 214.748 209.206 214.748ZM216.1 203.692H217.236V215.564H216.1V203.692ZM224.685 207.084C225.741 207.084 226.578 207.394 227.197 208.012C227.826 208.62 228.141 209.511 228.141 210.684V215.564H227.005V210.796C227.005 209.922 226.786 209.255 226.349 208.796C225.911 208.338 225.287 208.108 224.477 208.108C223.57 208.108 222.85 208.38 222.317 208.924C221.794 209.458 221.533 210.199 221.533 211.148V215.564H220.397V203.692H221.533V208.62C221.842 208.13 222.269 207.751 222.813 207.484C223.357 207.218 223.981 207.084 224.685 207.084ZM234.696 215.644C233.885 215.644 233.155 215.463 232.504 215.1C231.853 214.727 231.341 214.215 230.968 213.564C230.595 212.914 230.408 212.178 230.408 211.356C230.408 210.535 230.595 209.799 230.968 209.148C231.341 208.498 231.853 207.991 232.504 207.628C233.155 207.266 233.885 207.084 234.696 207.084C235.507 207.084 236.237 207.266 236.888 207.628C237.539 207.991 238.045 208.498 238.408 209.148C238.781 209.799 238.968 210.535 238.968 211.356C238.968 212.178 238.781 212.914 238.408 213.564C238.045 214.215 237.539 214.727 236.888 215.1C236.237 215.463 235.507 215.644 234.696 215.644ZM234.696 214.636C235.293 214.636 235.827 214.503 236.296 214.236C236.776 213.959 237.149 213.57 237.416 213.068C237.683 212.567 237.816 211.996 237.816 211.356C237.816 210.716 237.683 210.146 237.416 209.644C237.149 209.143 236.776 208.759 236.296 208.492C235.827 208.215 235.293 208.076 234.696 208.076C234.099 208.076 233.56 208.215 233.08 208.492C232.611 208.759 232.237 209.143 231.96 209.644C231.693 210.146 231.56 210.716 231.56 211.356C231.56 211.996 231.693 212.567 231.96 213.068C232.237 213.57 232.611 213.959 233.08 214.236C233.56 214.503 234.099 214.636 234.696 214.636Z" fill="black" fill-opacity="0.8"/>
<defs>
<filter id="filter0_d" x="-0.111816" y="0" width="320.223" height="295" filterUnits="userSpaceOnUse" color-interpolation-filters="sRGB">
<feFlood flood-opacity="0" result="BackgroundImageFix"/>
<feColorMatrix in="SourceAlpha" type="matrix" values="0 0 0 0 0 0 0 0 0 0 0 0 0 0 0 0 0 0 127 0" result="hardAlpha"/>
<feOffset dy="16"/>
<feGaussianBlur stdDeviation="20"/>
<feComposite in2="hardAlpha" operator="out"/>
<feColorMatrix type="matrix" values="0 0 0 0 0 0 0 0 0 0 0 0 0 0 0 0 0 0 0.15 0"/>
<feBlend mode="normal" in2="BackgroundImageFix" result="effect1_dropShadow"/>
<feBlend mode="normal" in="SourceGraphic" in2="effect1_dropShadow" result="shape"/>
</filter>
</defs>
</svg>
