<svg width="118" height="69" viewBox="0 0 118 69" fill="none" xmlns="http://www.w3.org/2000/svg">
<path d="M114.423 68.2704C116.015 68.2704 117.305 66.9999 117.305 65.4326C117.305 63.8653 116.015 62.5947 114.423 62.5947C112.831 62.5947 111.541 63.8653 111.541 65.4326C111.541 66.9999 112.831 68.2704 114.423 68.2704Z" fill="#FF601C"/>
<path d="M86.538 68.2704C88.1297 68.2704 89.42 66.9999 89.42 65.4326C89.42 63.8653 88.1297 62.5947 86.538 62.5947C84.9463 62.5947 83.656 63.8653 83.656 65.4326C83.656 66.9999 84.9463 68.2704 86.538 68.2704Z" fill="#FF601C"/>
<path d="M58.653 68.2704C60.2447 68.2704 61.535 66.9999 61.535 65.4326C61.535 63.8653 60.2447 62.5947 58.653 62.5947C57.0613 62.5947 55.771 63.8653 55.771 65.4326C55.771 66.9999 57.0613 68.2704 58.653 68.2704Z" fill="#FF601C"/>
<path d="M27.886 65.4326C27.886 64.8715 28.055 64.323 28.3715 63.8565C28.6881 63.39 29.1381 63.0264 29.6645 62.8116C30.1909 62.5969 30.7702 62.5408 31.329 62.6502C31.8879 62.7597 32.4013 63.0299 32.8042 63.4266C33.2071 63.8233 33.4815 64.3288 33.5927 64.8791C33.7038 65.4294 33.6467 65.9998 33.4287 66.5182C33.2106 67.0366 32.8414 67.4796 32.3676 67.7913C31.8938 68.1031 31.3368 68.2694 30.767 68.2694C30.3886 68.2697 30.0138 68.1965 29.6642 68.054C29.3145 67.9115 28.9968 67.7026 28.7292 67.4391C28.4617 67.1756 28.2495 66.8628 28.1048 66.5185C27.9601 66.1742 27.8857 65.8052 27.886 65.4326V65.4326Z" fill="#FF601C"/>
<path d="M2.882 68.2704C4.47368 68.2704 5.764 66.9999 5.764 65.4326C5.764 63.8653 4.47368 62.5947 2.882 62.5947C1.29032 62.5947 0 63.8653 0 65.4326C0 66.9999 1.29032 68.2704 2.882 68.2704Z" fill="#FF601C"/>
<path d="M114.423 47.4052C116.015 47.4052 117.305 46.1346 117.305 44.5673C117.305 43 116.015 41.7295 114.423 41.7295C112.831 41.7295 111.541 43 111.541 44.5673C111.541 46.1346 112.831 47.4052 114.423 47.4052Z" fill="#FF601C"/>
<path d="M86.538 47.4052C88.1297 47.4052 89.42 46.1346 89.42 44.5673C89.42 43 88.1297 41.7295 86.538 41.7295C84.9463 41.7295 83.656 43 83.656 44.5673C83.656 46.1346 84.9463 47.4052 86.538 47.4052Z" fill="#FF601C"/>
<path d="M58.653 47.4052C60.2447 47.4052 61.535 46.1346 61.535 44.5673C61.535 43 60.2447 41.7295 58.653 41.7295C57.0613 41.7295 55.771 43 55.771 44.5673C55.771 46.1346 57.0613 47.4052 58.653 47.4052Z" fill="#FF601C"/>
<path d="M27.886 44.5683C27.886 44.0072 28.055 43.4587 28.3715 42.9922C28.6881 42.5257 29.1381 42.1621 29.6645 41.9474C30.1909 41.7327 30.7702 41.6765 31.329 41.786C31.8879 41.8954 32.4013 42.1656 32.8042 42.5623C33.2071 42.9591 33.4815 43.4646 33.5927 44.0149C33.7038 44.5652 33.6467 45.1356 33.4287 45.6539C33.2106 46.1723 32.8414 46.6154 32.3676 46.9271C31.8938 47.2388 31.3368 47.4052 30.767 47.4052C30.0029 47.4052 29.2701 47.1063 28.7298 46.5743C28.1895 46.0423 27.886 45.3207 27.886 44.5683V44.5683Z" fill="#FF601C"/>
<path d="M2.882 47.4052C4.47368 47.4052 5.764 46.1346 5.764 44.5673C5.764 43 4.47368 41.7295 2.882 41.7295C1.29032 41.7295 0 43 0 44.5673C0 46.1346 1.29032 47.4052 2.882 47.4052Z" fill="#FF601C"/>
<path d="M114.423 26.5409C116.015 26.5409 117.305 25.2704 117.305 23.7031C117.305 22.1358 116.015 20.8652 114.423 20.8652C112.831 20.8652 111.541 22.1358 111.541 23.7031C111.541 25.2704 112.831 26.5409 114.423 26.5409Z" fill="#FF601C"/>
<path d="M86.538 26.5409C88.1297 26.5409 89.42 25.2704 89.42 23.7031C89.42 22.1358 88.1297 20.8652 86.538 20.8652C84.9463 20.8652 83.656 22.1358 83.656 23.7031C83.656 25.2704 84.9463 26.5409 86.538 26.5409Z" fill="#FF601C"/>
<path d="M58.653 26.5409C60.2447 26.5409 61.535 25.2704 61.535 23.7031C61.535 22.1358 60.2447 20.8652 58.653 20.8652C57.0613 20.8652 55.771 22.1358 55.771 23.7031C55.771 25.2704 57.0613 26.5409 58.653 26.5409Z" fill="#FF601C"/>
<path d="M27.886 23.7021C27.8866 23.1411 28.0561 22.5929 28.373 22.1268C28.6899 21.6607 29.1401 21.2975 29.6666 21.0833C30.1931 20.869 30.7722 20.8132 31.3309 20.923C31.8896 21.0328 32.4026 21.3033 32.8052 21.7001C33.2079 22.097 33.4819 22.6025 33.5929 23.1527C33.7038 23.7029 33.6466 24.2731 33.4284 24.7913C33.2103 25.3095 32.841 25.7524 32.3673 26.064C31.8936 26.3756 31.3367 26.5419 30.767 26.5419C30.3884 26.5419 30.0135 26.4684 29.6638 26.3257C29.3141 26.1829 28.9963 25.9737 28.7288 25.71C28.4612 25.4462 28.249 25.1331 28.1044 24.7886C27.9598 24.4441 27.8856 24.0749 27.886 23.7021V23.7021Z" fill="#FF601C"/>
<path d="M2.882 26.5409C4.47368 26.5409 5.764 25.2704 5.764 23.7031C5.764 22.1358 4.47368 20.8652 2.882 20.8652C1.29032 20.8652 0 22.1358 0 23.7031C0 25.2704 1.29032 26.5409 2.882 26.5409Z" fill="#FF601C"/>
<path d="M114.423 5.6757C116.015 5.6757 117.305 4.40515 117.305 2.83785C117.305 1.27055 116.015 0 114.423 0C112.831 0 111.541 1.27055 111.541 2.83785C111.541 4.40515 112.831 5.6757 114.423 5.6757Z" fill="#FF601C"/>
<path d="M86.538 5.6757C88.1297 5.6757 89.42 4.40515 89.42 2.83785C89.42 1.27055 88.1297 0 86.538 0C84.9463 0 83.656 1.27055 83.656 2.83785C83.656 4.40515 84.9463 5.6757 86.538 5.6757Z" fill="#FF601C"/>
<path d="M58.653 5.6757C60.2447 5.6757 61.535 4.40515 61.535 2.83785C61.535 1.27055 60.2447 0 58.653 0C57.0613 0 55.771 1.27055 55.771 2.83785C55.771 4.40515 57.0613 5.6757 58.653 5.6757Z" fill="#FF601C"/>
<path d="M27.886 2.83882C27.886 2.27774 28.055 1.72926 28.3715 1.26274C28.6881 0.796215 29.1381 0.43261 29.6645 0.217894C30.1909 0.00317862 30.7702 -0.0529958 31.329 0.0564652C31.8879 0.165926 32.4013 0.436111 32.8042 0.832854C33.2071 1.2296 33.4815 1.73507 33.5927 2.28537C33.7038 2.83567 33.6467 3.40607 33.4287 3.92444C33.2106 4.4428 32.8414 4.88586 32.3676 5.19758C31.8938 5.5093 31.3368 5.67568 30.767 5.67568C30.3886 5.67594 30.0138 5.60274 29.6642 5.46026C29.3145 5.31779 28.9968 5.10884 28.7292 4.84536C28.4617 4.58189 28.2495 4.26904 28.1048 3.92474C27.9601 3.58043 27.8857 3.21143 27.886 2.83882V2.83882Z" fill="#FF601C"/>
<path d="M2.882 5.6757C4.47368 5.6757 5.764 4.40515 5.764 2.83785C5.764 1.27055 4.47368 0 2.882 0C1.29032 0 0 1.27055 0 2.83785C0 4.40515 1.29032 5.6757 2.882 5.6757Z" fill="#FF601C"/>
</svg>
