<svg width="200" height="180" viewBox="0 0 246 241" fill="none" xmlns="http://www.w3.org/2000/svg">
<path d="M184.5 180.77C172.336 192.648 156.839 200.737 139.968 204.015C123.096 207.292 105.609 205.61 89.7164 199.181C73.824 192.753 60.2405 181.866 50.6837 167.899C41.1268 153.931 36.0259 137.51 36.0259 120.711C36.0259 103.912 41.1268 87.4908 50.6837 73.5232C60.2405 59.5557 73.824 48.6692 89.7164 42.2407C105.609 35.8121 123.096 34.1301 139.968 37.4073C156.839 40.6846 172.336 48.7739 184.5 60.6524C192.591 68.5313 199.011 77.8919 203.391 88.1979C207.771 98.5038 210.025 109.553 210.025 120.711C210.025 131.869 207.771 142.918 203.391 153.224C199.011 163.53 192.591 172.891 184.5 180.77Z" fill="#2A2962"/>
<path d="M143.909 144.335L123.388 164.374C127.04 156.238 127.442 147.061 124.516 138.649C124.434 138.449 124.372 138.229 124.29 138.029C122.686 133.773 120.146 129.912 116.849 126.718C113.73 123.665 110.004 121.267 105.902 119.671C105.695 119.585 105.482 119.512 105.266 119.451C96.4902 116.358 86.8334 116.674 78.2884 120.331L98.8089 100.292C105.239 97.5749 112.329 96.7068 119.247 97.7895C119.523 97.81 119.797 97.8501 120.067 97.9096C126.754 99.0612 132.901 102.236 137.639 106.985C142.377 111.734 145.467 117.818 146.471 124.375C146.533 124.636 146.574 124.916 146.615 125.196C147.497 131.697 146.562 138.31 143.909 144.335Z" fill="#EAE9F0"/>
<path d="M70.3321 125.333C69.9245 124.934 69.6955 124.394 69.6955 123.831C69.6955 123.268 69.9245 122.728 70.3321 122.33L96.982 96.3042C97.3898 95.906 97.9429 95.6823 98.5195 95.6823C99.0962 95.6823 99.6493 95.906 100.057 96.3042C100.465 96.7024 100.694 97.2425 100.694 97.8057C100.694 98.3688 100.465 98.9089 100.057 99.3071L73.4071 125.333C72.9992 125.731 72.4462 125.954 71.8696 125.954C71.293 125.954 70.7399 125.731 70.3321 125.333Z" fill="#FF601C"/>
<path d="M118.25 172.128C117.842 171.73 117.613 171.19 117.613 170.627C117.613 170.064 117.842 169.524 118.25 169.125L144.9 143.1C145.308 142.702 145.861 142.478 146.438 142.478C147.014 142.478 147.567 142.702 147.975 143.1C148.383 143.498 148.612 144.038 148.612 144.602C148.612 145.165 148.383 145.705 147.975 146.103L121.325 172.128C120.917 172.526 120.364 172.75 119.788 172.75C119.211 172.75 118.658 172.526 118.25 172.128Z" fill="#FF601C"/>
<path d="M118.891 136.718C118.891 136.718 133.241 134.716 159.891 108.69C186.541 82.665 184.491 60.6435 184.491 60.6435C184.491 60.6435 161.941 58.6416 135.291 84.667C108.641 110.692 106.591 124.706 106.591 124.706L118.891 136.718Z" fill="#FF601C"/>
<path d="M110.7 204.793C92.0705 202.194 74.8068 193.764 61.5 180.769C48.1933 167.775 39.5614 150.915 36.9 132.723L38.95 134.725C38.95 134.725 43.05 138.728 51.25 134.725C59.45 130.721 63.55 134.725 71.75 142.732C79.95 150.74 108.65 134.725 108.65 134.725C108.65 134.725 92.25 162.752 100.45 170.76C108.65 178.768 112.75 182.771 108.65 190.779C104.55 198.787 108.65 202.791 108.65 202.791L110.7 204.793Z" fill="#ECF1F2"/>
<path d="M176.906 86.9096C171.639 79.5768 165.104 73.1954 157.595 68.0513C173.401 59.6631 184.491 60.644 184.491 60.644C184.491 60.644 185.496 71.4747 176.906 86.9096Z" fill="#3A4946"/>
<path d="M151.692 92.6748C155.088 95.9918 160.595 95.9918 163.992 92.6748C167.388 89.3579 167.388 83.98 163.992 80.6631C160.595 77.3461 155.088 77.3461 151.692 80.6631C148.295 83.98 148.295 89.3579 151.692 92.6748Z" fill="#36357E"/>
<path d="M136.316 107.689C138.58 109.901 142.252 109.901 144.516 107.689C146.78 105.478 146.78 101.893 144.516 99.6816C142.252 97.4703 138.58 97.4703 136.316 99.6816C134.052 101.893 134.052 105.478 136.316 107.689Z" fill="#36357E"/>
<path d="M122.991 120.703C124.69 122.362 127.443 122.362 129.141 120.703C130.84 119.045 130.84 116.356 129.141 114.697C127.443 113.039 124.69 113.039 122.991 114.697C121.293 116.356 121.293 119.045 122.991 120.703Z" fill="#36357E"/>
<path d="M106.592 124.706L118.892 136.718L114.792 140.722C114.248 141.253 113.511 141.551 112.742 141.551C111.973 141.551 111.236 141.253 110.692 140.722L102.492 132.714C101.948 132.183 101.643 131.463 101.643 130.712C101.643 129.961 101.948 129.241 102.492 128.71L106.592 124.706Z" fill="#3A4946"/>
<path d="M118.901 44.6357C120.033 45.7414 121.869 45.7414 123.001 44.6357C124.133 43.5301 124.133 41.7375 123.001 40.6318C121.869 39.5262 120.033 39.5262 118.901 40.6318C117.769 41.7375 117.769 43.5301 118.901 44.6357Z" fill="#BFC1EF"/>
<path d="M110.7 76.668C111.832 77.7736 113.668 77.7736 114.8 76.668C115.932 75.5623 115.932 73.7697 114.8 72.6641C113.668 71.5584 111.832 71.5584 110.7 72.6641C109.568 73.7697 109.568 75.5623 110.7 76.668Z" fill="#BFC1EF"/>
<path d="M147.6 56.6484C148.733 57.7541 150.568 57.7541 151.7 56.6484C152.833 55.5428 152.833 53.7502 151.7 52.6445C150.568 51.5389 148.733 51.5389 147.6 52.6445C146.468 53.7502 146.468 55.5428 147.6 56.6484Z" fill="#BFC1EF"/>
<path d="M184.501 108.699C185.633 109.805 187.469 109.805 188.601 108.699C189.733 107.594 189.733 105.801 188.601 104.695C187.469 103.59 185.633 103.59 184.501 104.695C183.369 105.801 183.369 107.594 184.501 108.699Z" fill="#BFC1EF"/>
<path d="M164.001 136.727C165.133 137.832 166.969 137.832 168.101 136.727C169.233 135.621 169.233 133.828 168.101 132.723C166.969 131.617 165.133 131.617 164.001 132.723C162.869 133.828 162.869 135.621 164.001 136.727Z" fill="#BFC1EF"/>
<path d="M155.8 168.758C156.932 169.863 158.767 169.863 159.9 168.758C161.032 167.652 161.032 165.86 159.9 164.754C158.767 163.648 156.932 163.648 155.8 164.754C154.667 165.86 154.667 167.652 155.8 168.758Z" fill="#BFC1EF"/>
<path d="M77.8992 84.6748C79.0314 85.7805 80.867 85.7805 81.9992 84.6748C83.1314 83.5692 83.1314 81.7765 81.9992 80.6709C80.867 79.5652 79.0314 79.5653 77.8992 80.6709C76.7671 81.7765 76.767 83.5692 77.8992 84.6748Z" fill="#BFC1EF"/>
<path opacity="0.3" d="M184.52 61.553C177.519 64.884 170.895 68.9234 164.758 73.6048C157.821 78.7002 151.271 84.2803 145.16 90.3011C132.605 102.233 121.383 115.433 111.684 129.679L108.26 126.336C108.26 126.336 111.335 113.324 137.985 87.2982C144.537 80.7659 151.89 75.0503 159.879 70.2816L159.859 70.2615C159.974 70.1831 160.098 70.116 160.228 70.0614C160.248 70.0413 160.31 70.0213 160.33 70.0013C160.781 69.721 161.191 69.4808 161.642 69.2405C162.38 68.8402 163.077 68.4398 163.795 68.0594C164.205 67.8592 164.635 67.639 165.045 67.4388C166.029 66.9183 167.034 66.4578 167.977 66.0174C168.325 65.8773 168.653 65.7571 169.002 65.617C169.678 65.3167 170.334 65.0364 170.99 64.7562C171.339 64.616 171.667 64.4959 172.015 64.3558C172.815 64.0955 173.573 63.7952 174.311 63.555C174.516 63.4749 174.742 63.4149 174.988 63.3348C175.644 63.1346 176.3 62.9344 176.894 62.7542C177.161 62.6942 177.427 62.6341 177.673 62.554C178.227 62.4139 178.739 62.2738 179.211 62.1737L179.703 62.0535C180.297 61.9134 180.851 61.8133 181.363 61.7132C181.548 61.6932 181.691 61.6732 181.835 61.6531C182.224 61.5931 182.532 61.533 182.86 61.493C182.962 61.473 183.106 61.453 183.208 61.4329C183.577 61.3929 183.905 61.3529 184.172 61.3328C184.234 61.3373 184.296 61.3305 184.356 61.3128L184.52 61.3128L184.52 61.553Z" fill="white"/>
</svg>
