<svg width="80" height="79" viewBox="0 0 80 79" fill="none" xmlns="http://www.w3.org/2000/svg">
<path d="M59.0003 0C62.4481 0 65.7548 1.33754 68.1927 3.71837C70.6307 6.0992 72.0004 9.32831 72.0004 12.6953V35.2422C70.1303 34.0714 68.1138 33.1406 66.0003 32.4727V21.4844H6.00003V57.6172C6.00003 61.3906 9.13605 64.4531 13.0001 64.4531H33.2522C33.9442 66.5391 34.9002 68.5039 36.0882 70.3125H13.0001C9.55223 70.3125 6.24562 68.975 3.80763 66.5941C1.36965 64.2133 0 60.9842 0 57.6172V12.6953C0 9.32831 1.36965 6.0992 3.80763 3.71837C6.24562 1.33754 9.55223 0 13.0001 0H59.0003ZM59.0003 5.85938H13.0001C11.1435 5.85938 9.36306 6.57959 8.05029 7.86158C6.73753 9.14356 6.00003 10.8823 6.00003 12.6953V15.625H66.0003V12.6953C66.0003 10.8823 65.2628 9.14356 63.9501 7.86158C62.6373 6.57959 60.8568 5.85938 59.0003 5.85938Z" fill="#FEBBA2"/>
<path d="M80.0002 56.6406C80.0002 62.3386 77.6824 67.8033 73.5566 71.8324C69.4307 75.8615 63.8349 78.125 58.0001 78.125C52.1653 78.125 46.5695 75.8615 42.4437 71.8324C38.3179 67.8033 36 62.3386 36 56.6406C36 50.9426 38.3179 45.478 42.4437 41.4489C46.5695 37.4198 52.1653 35.1562 58.0001 35.1562C63.8349 35.1562 69.4307 37.4198 73.5566 41.4489C77.6824 45.478 80.0002 50.9426 80.0002 56.6406ZM71.4162 47.4453C71.2304 47.2634 71.0097 47.1191 70.7667 47.0207C70.5237 46.9222 70.2633 46.8715 70.0002 46.8715C69.7371 46.8715 69.4766 46.9222 69.2337 47.0207C68.9907 47.1191 68.77 47.2634 68.5842 47.4453L54.0001 61.6914L47.4161 55.2578C47.0405 54.8911 46.5312 54.685 46.0001 54.685C45.469 54.685 44.9596 54.8911 44.584 55.2578C44.2085 55.6246 43.9975 56.122 43.9975 56.6406C43.9975 57.1593 44.2085 57.6567 44.584 58.0234L52.5841 65.8359C52.7699 66.0178 52.9906 66.1621 53.2336 66.2606C53.4765 66.3591 53.737 66.4097 54.0001 66.4097C54.2632 66.4097 54.5237 66.3591 54.7666 66.2606C55.0096 66.1621 55.2303 66.0178 55.4161 65.8359L71.4162 50.2109C71.6025 50.0295 71.7502 49.814 71.8511 49.5767C71.9519 49.3394 72.0038 49.085 72.0038 48.8281C72.0038 48.5712 71.9519 48.3168 71.8511 48.0796C71.7502 47.8423 71.6025 47.6267 71.4162 47.4453Z" fill="white"/>
</svg>
