<svg width="574" height="500" viewBox="0 0 574 500" fill="none" xmlns="http://www.w3.org/2000/svg">
<g clip-path="url(#clip0)">
<path d="M496.88 499.035C539.221 499.035 573.545 496.417 573.545 493.187C573.545 489.958 539.221 487.34 496.88 487.34C454.539 487.34 420.215 489.958 420.215 493.187C420.215 496.417 454.539 499.035 496.88 499.035Z" fill="#E6E6E6"/>
<path d="M526.586 325.782L519.172 346.463C518.61 348.03 518.607 349.743 519.164 351.312C519.721 352.882 520.802 354.21 522.226 355.073C523.263 355.701 524.441 356.058 525.651 356.112C526.862 356.165 528.067 355.912 529.154 355.378C530.242 354.843 531.177 354.043 531.874 353.051C532.571 352.06 533.007 350.909 533.143 349.705L535.496 328.751L553.315 269.849L537.971 262.424L526.586 325.782Z" fill="#A0616A"/>
<path d="M520.399 481.948H531.288V376.022L506.539 375.527L520.399 481.948Z" fill="#A0616A"/>
<path d="M471.89 481.948H482.78V376.022L458.031 375.527L471.89 481.948Z" fill="#A0616A"/>
<path d="M533.021 387.16L504.807 384.19L498.867 353.006L487.978 384.685L454.319 381.22L468.178 328.752C493.513 311.537 517.575 311.913 540.446 328.752L533.021 387.16Z" fill="#2F2E41"/>
<path d="M485.185 486.461C485.353 487.805 485.21 489.169 484.767 490.449C484.324 491.729 483.593 492.891 482.63 493.843C481.668 494.796 480.499 495.515 479.214 495.944C477.93 496.374 476.564 496.503 475.222 496.321L455.161 493.6C453.367 493.32 451.757 492.34 450.685 490.874C449.613 489.409 449.165 487.578 449.442 485.783C449.691 484.165 450.511 482.689 451.754 481.622C452.997 480.556 454.58 479.97 456.218 479.97H459.526L470.408 470.055C470.515 476.808 475.489 475.309 483.709 474.649L485.185 486.461Z" fill="#2F2E41"/>
<path d="M533.693 486.461C533.861 487.805 533.718 489.169 533.275 490.449C532.832 491.729 532.101 492.891 531.139 493.843C530.176 494.796 529.007 495.515 527.723 495.944C526.438 496.374 525.072 496.503 523.73 496.321L503.669 493.6C501.875 493.32 500.265 492.34 499.193 490.874C498.121 489.409 497.674 487.578 497.95 485.783C498.199 484.165 499.019 482.689 500.262 481.622C501.505 480.556 503.089 479.97 504.726 479.97H508.034L518.916 470.055C519.024 476.808 523.997 475.309 532.217 474.649L533.693 486.461Z" fill="#2F2E41"/>
<path d="M495.031 206.986C504.667 206.986 512.479 199.174 512.479 189.538C512.479 179.902 504.667 172.09 495.031 172.09C485.395 172.09 477.583 179.902 477.583 189.538C477.583 199.174 485.395 206.986 495.031 206.986Z" fill="#A0616A"/>
<path d="M517.182 218.866L495.402 220.847V201.542L506.787 194.612L517.182 218.866Z" fill="#A0616A"/>
<path d="M542.921 336.176C521.01 320.132 494.701 321.763 465.704 334.197C478.842 297.004 484.438 262.341 474.118 233.018C474.118 227.837 475.843 222.804 479.02 218.711C482.197 214.619 486.646 211.701 491.666 210.417L495.403 209.461L513.717 210.451L530.915 220.532C534.422 222.588 537.333 225.522 539.362 229.045C541.391 232.568 542.468 236.558 542.487 240.624L542.921 336.176Z" fill="#E6E6E6"/>
<path d="M458.278 321.822L450.864 342.503C450.303 344.07 450.3 345.783 450.856 347.352C451.413 348.922 452.495 350.25 453.919 351.113C454.955 351.741 456.133 352.098 457.344 352.152C458.555 352.205 459.759 351.952 460.847 351.418C461.934 350.883 462.87 350.083 463.567 349.091C464.264 348.1 464.7 346.949 464.835 345.745L467.188 324.792L485.007 265.889L469.663 258.464L458.278 321.822Z" fill="#A0616A"/>
<path d="M557.275 281.233H533.021V221.835C537.216 224.165 540.86 227.371 543.707 231.234C546.554 235.097 548.537 239.527 549.521 244.223L557.275 281.233Z" fill="#E6E6E6"/>
<path d="M481.728 180.091C480.662 180.595 479.487 180.825 478.31 180.761C477.133 180.697 475.99 180.342 474.984 179.726C474.001 179.076 473.258 178.121 472.87 177.007C472.483 175.894 472.472 174.684 472.84 173.564C473.576 171.672 475.437 170.487 477.244 169.562C481.228 167.522 485.498 166.095 489.909 165.331C492.012 164.967 494.239 164.767 496.227 165.544C497.21 165.929 498.092 166.538 499.068 166.941C500.863 167.681 502.866 167.685 504.766 168.086C506.71 168.511 508.541 169.349 510.135 170.542C511.728 171.736 513.046 173.258 514 175.005C514.625 176.194 515.105 177.454 515.43 178.757C516.345 182.323 516.333 186.064 515.395 189.624C513.901 195.264 510.098 200.446 510.44 206.27C507.629 204.633 506.312 201.3 503.964 199.047C502.219 197.383 499.961 196.361 497.559 196.146C496.903 196.172 496.253 196.007 495.689 195.67C495.279 195.27 494.996 194.759 494.875 194.199L492.23 185.915C491.692 184.229 491.042 182.397 489.521 181.493C488.582 181.018 487.547 180.766 486.495 180.758C483.979 180.574 481.453 180.598 478.941 180.829" fill="#2F2E41"/>
<path d="M487.483 270.344L459.269 259.454L472.082 224.931C473.574 220.91 476.194 217.406 479.628 214.838C483.062 212.269 487.164 210.746 491.442 210.451L487.483 270.344Z" fill="#E6E6E6"/>
<path d="M335.695 369.607H25.829C24.3585 369.605 22.9486 369.02 21.9088 367.981C20.869 366.941 20.2841 365.531 20.2825 364.06V26.0915C20.2841 24.6209 20.869 23.2111 21.9088 22.1712C22.9486 21.1314 24.3585 20.5465 25.829 20.5449H335.695C337.166 20.5465 338.576 21.1314 339.616 22.1712C340.655 23.2111 341.24 24.6209 341.242 26.0915V364.06C341.24 365.531 340.655 366.941 339.616 367.981C338.576 369.02 337.166 369.605 335.695 369.607ZM25.829 22.7635C24.9467 22.7645 24.1008 23.1154 23.4769 23.7393C22.853 24.3632 22.502 25.2091 22.5011 26.0915V364.06C22.502 364.943 22.853 365.789 23.4769 366.412C24.1008 367.036 24.9467 367.387 25.829 367.388H335.695C336.578 367.387 337.424 367.036 338.048 366.412C338.671 365.789 339.022 364.943 339.023 364.06V26.0915C339.022 25.2091 338.671 24.3632 338.048 23.7393C337.424 23.1154 336.578 22.7645 335.695 22.7635H25.829Z" fill="#E6E6E6"/>
<path d="M89.771 146.522C93.7912 146.522 97.0503 143.263 97.0503 139.243C97.0503 135.223 93.7912 131.964 89.771 131.964C85.7507 131.964 82.4917 135.223 82.4917 139.243C82.4917 143.263 85.7507 146.522 89.771 146.522Z" fill="#E6E6E6"/>
<path d="M120.102 146.522C124.122 146.522 127.381 143.263 127.381 139.243C127.381 135.223 124.122 131.964 120.102 131.964C116.081 131.964 112.822 135.223 112.822 139.243C112.822 143.263 116.081 146.522 120.102 146.522Z" fill="#E6E6E6"/>
<path d="M150.432 146.522C154.452 146.522 157.711 143.263 157.711 139.243C157.711 135.223 154.452 131.964 150.432 131.964C146.412 131.964 143.153 135.223 143.153 139.243C143.153 143.263 146.412 146.522 150.432 146.522Z" fill="#6C63FF"/>
<path d="M180.762 146.522C184.782 146.522 188.041 143.263 188.041 139.243C188.041 135.223 184.782 131.964 180.762 131.964C176.742 131.964 173.483 135.223 173.483 139.243C173.483 143.263 176.742 146.522 180.762 146.522Z" fill="#6C63FF"/>
<path d="M211.092 146.522C215.113 146.522 218.372 143.263 218.372 139.243C218.372 135.223 215.113 131.964 211.092 131.964C207.072 131.964 203.813 135.223 203.813 139.243C203.813 143.263 207.072 146.522 211.092 146.522Z" fill="#6C63FF"/>
<path d="M241.423 146.522C245.443 146.522 248.702 143.263 248.702 139.243C248.702 135.223 245.443 131.964 241.423 131.964C237.403 131.964 234.144 135.223 234.144 139.243C234.144 143.263 237.403 146.522 241.423 146.522Z" fill="#E6E6E6"/>
<path d="M271.753 146.522C275.774 146.522 279.033 143.263 279.033 139.243C279.033 135.223 275.774 131.964 271.753 131.964C267.733 131.964 264.474 135.223 264.474 139.243C264.474 143.263 267.733 146.522 271.753 146.522Z" fill="#E6E6E6"/>
<path d="M89.771 169.572C93.7912 169.572 97.0503 166.313 97.0503 162.293C97.0503 158.273 93.7912 155.014 89.771 155.014C85.7507 155.014 82.4917 158.273 82.4917 162.293C82.4917 166.313 85.7507 169.572 89.771 169.572Z" fill="#E6E6E6"/>
<path d="M120.102 169.572C124.122 169.572 127.381 166.313 127.381 162.293C127.381 158.273 124.122 155.014 120.102 155.014C116.081 155.014 112.822 158.273 112.822 162.293C112.822 166.313 116.081 169.572 120.102 169.572Z" fill="#E6E6E6"/>
<path d="M150.432 169.572C154.452 169.572 157.711 166.313 157.711 162.293C157.711 158.273 154.452 155.014 150.432 155.014C146.412 155.014 143.153 158.273 143.153 162.293C143.153 166.313 146.412 169.572 150.432 169.572Z" fill="#E6E6E6"/>
<path d="M180.762 169.572C184.782 169.572 188.041 166.313 188.041 162.293C188.041 158.273 184.782 155.014 180.762 155.014C176.742 155.014 173.483 158.273 173.483 162.293C173.483 166.313 176.742 169.572 180.762 169.572Z" fill="#E6E6E6"/>
<path d="M211.092 169.572C215.113 169.572 218.372 166.313 218.372 162.293C218.372 158.273 215.113 155.014 211.092 155.014C207.072 155.014 203.813 158.273 203.813 162.293C203.813 166.313 207.072 169.572 211.092 169.572Z" fill="#E6E6E6"/>
<path d="M241.423 169.572C245.443 169.572 248.702 166.313 248.702 162.293C248.702 158.273 245.443 155.014 241.423 155.014C237.403 155.014 234.144 158.273 234.144 162.293C234.144 166.313 237.403 169.572 241.423 169.572Z" fill="#E6E6E6"/>
<path d="M271.753 169.572C275.774 169.572 279.033 166.313 279.033 162.293C279.033 158.273 275.774 155.014 271.753 155.014C267.733 155.014 264.474 158.273 264.474 162.293C264.474 166.313 267.733 169.572 271.753 169.572Z" fill="#E6E6E6"/>
<path d="M89.771 192.624C93.7912 192.624 97.0503 189.365 97.0503 185.345C97.0503 181.324 93.7912 178.065 89.771 178.065C85.7507 178.065 82.4917 181.324 82.4917 185.345C82.4917 189.365 85.7507 192.624 89.771 192.624Z" fill="#6C63FF"/>
<path d="M120.102 192.624C124.122 192.624 127.381 189.365 127.381 185.345C127.381 181.324 124.122 178.065 120.102 178.065C116.081 178.065 112.822 181.324 112.822 185.345C112.822 189.365 116.081 192.624 120.102 192.624Z" fill="#6C63FF"/>
<path d="M150.432 192.624C154.452 192.624 157.711 189.365 157.711 185.345C157.711 181.324 154.452 178.065 150.432 178.065C146.412 178.065 143.153 181.324 143.153 185.345C143.153 189.365 146.412 192.624 150.432 192.624Z" fill="#6C63FF"/>
<path d="M180.762 192.624C184.782 192.624 188.041 189.365 188.041 185.345C188.041 181.324 184.782 178.065 180.762 178.065C176.742 178.065 173.483 181.324 173.483 185.345C173.483 189.365 176.742 192.624 180.762 192.624Z" fill="#E6E6E6"/>
<path d="M211.092 192.624C215.113 192.624 218.372 189.365 218.372 185.345C218.372 181.324 215.113 178.065 211.092 178.065C207.072 178.065 203.813 181.324 203.813 185.345C203.813 189.365 207.072 192.624 211.092 192.624Z" fill="#E6E6E6"/>
<path d="M241.423 192.624C245.443 192.624 248.702 189.365 248.702 185.345C248.702 181.324 245.443 178.065 241.423 178.065C237.403 178.065 234.144 181.324 234.144 185.345C234.144 189.365 237.403 192.624 241.423 192.624Z" fill="#E6E6E6"/>
<path d="M271.753 192.624C275.774 192.624 279.033 189.365 279.033 185.345C279.033 181.324 275.774 178.065 271.753 178.065C267.733 178.065 264.474 181.324 264.474 185.345C264.474 189.365 267.733 192.624 271.753 192.624Z" fill="#E6E6E6"/>
<path d="M89.771 215.676C93.7912 215.676 97.0503 212.417 97.0503 208.396C97.0503 204.376 93.7912 201.117 89.771 201.117C85.7507 201.117 82.4917 204.376 82.4917 208.396C82.4917 212.417 85.7507 215.676 89.771 215.676Z" fill="#E6E6E6"/>
<path d="M120.102 215.676C124.122 215.676 127.381 212.417 127.381 208.396C127.381 204.376 124.122 201.117 120.102 201.117C116.081 201.117 112.822 204.376 112.822 208.396C112.822 212.417 116.081 215.676 120.102 215.676Z" fill="#E6E6E6"/>
<path d="M89.771 238.726C93.7912 238.726 97.0503 235.467 97.0503 231.446C97.0503 227.426 93.7912 224.167 89.771 224.167C85.7507 224.167 82.4917 227.426 82.4917 231.446C82.4917 235.467 85.7507 238.726 89.771 238.726Z" fill="#E6E6E6"/>
<path d="M120.102 238.726C124.122 238.726 127.381 235.467 127.381 231.446C127.381 227.426 124.122 224.167 120.102 224.167C116.081 224.167 112.822 227.426 112.822 231.446C112.822 235.467 116.081 238.726 120.102 238.726Z" fill="#E6E6E6"/>
<path d="M150.432 238.726C154.452 238.726 157.711 235.467 157.711 231.446C157.711 227.426 154.452 224.167 150.432 224.167C146.412 224.167 143.153 227.426 143.153 231.446C143.153 235.467 146.412 238.726 150.432 238.726Z" fill="#E6E6E6"/>
<path d="M150.432 215.676C154.452 215.676 157.711 212.417 157.711 208.396C157.711 204.376 154.452 201.117 150.432 201.117C146.412 201.117 143.153 204.376 143.153 208.396C143.153 212.417 146.412 215.676 150.432 215.676Z" fill="#E6E6E6"/>
<path d="M180.762 215.676C184.782 215.676 188.041 212.417 188.041 208.396C188.041 204.376 184.782 201.117 180.762 201.117C176.742 201.117 173.483 204.376 173.483 208.396C173.483 212.417 176.742 215.676 180.762 215.676Z" fill="#6C63FF"/>
<path d="M211.092 215.676C215.113 215.676 218.372 212.417 218.372 208.396C218.372 204.376 215.113 201.117 211.092 201.117C207.072 201.117 203.813 204.376 203.813 208.396C203.813 212.417 207.072 215.676 211.092 215.676Z" fill="#6C63FF"/>
<path d="M241.423 215.676C245.443 215.676 248.702 212.417 248.702 208.396C248.702 204.376 245.443 201.117 241.423 201.117C237.403 201.117 234.144 204.376 234.144 208.396C234.144 212.417 237.403 215.676 241.423 215.676Z" fill="#6C63FF"/>
<path d="M271.753 215.676C275.774 215.676 279.033 212.417 279.033 208.396C279.033 204.376 275.774 201.117 271.753 201.117C267.733 201.117 264.474 204.376 264.474 208.396C264.474 212.417 267.733 215.676 271.753 215.676Z" fill="#E6E6E6"/>
<path d="M125.658 74.9C124.504 74.919 123.404 75.3906 122.595 76.2132C121.786 77.0358 121.333 78.1435 121.333 79.2973C121.333 80.4512 121.786 81.5589 122.595 82.3814C123.404 83.204 124.504 83.6757 125.658 83.6946H235.913C236.49 83.7048 237.065 83.6009 237.602 83.389C238.14 83.177 238.631 82.8612 239.046 82.4595C239.462 82.0579 239.794 81.5782 240.024 81.048C240.254 80.5178 240.378 79.9475 240.387 79.3696C240.396 78.7918 240.292 78.2177 240.079 77.6802C239.867 77.1428 239.551 76.6525 239.148 76.2374C238.746 75.8222 238.266 75.4905 237.736 75.261C237.205 75.0315 236.635 74.9089 236.057 74.9C236.009 74.8992 235.961 74.8992 235.913 74.9H125.658Z" fill="#3F3D56"/>
<path d="M260.915 73.6753C260.835 73.7557 260.771 73.8511 260.728 73.956C260.684 74.061 260.662 74.1735 260.662 74.2872C260.662 74.4008 260.684 74.5133 260.728 74.6183C260.771 74.7233 260.835 74.8187 260.915 74.899L264.63 78.6136H255.47C255.241 78.6136 255.021 78.7048 254.858 78.8671C254.696 79.0294 254.605 79.2495 254.605 79.479C254.605 79.7084 254.696 79.9285 254.858 80.0908C255.021 80.2531 255.241 80.3443 255.47 80.3443H264.63L260.915 84.0589C260.835 84.1392 260.771 84.2346 260.728 84.3396C260.684 84.4446 260.662 84.5571 260.662 84.6707C260.662 84.7843 260.684 84.8969 260.728 85.0018C260.771 85.1068 260.835 85.2022 260.915 85.2826C260.996 85.3629 261.091 85.4267 261.196 85.4701C261.301 85.5136 261.414 85.536 261.527 85.536C261.641 85.536 261.753 85.5136 261.858 85.4702C261.963 85.4267 262.059 85.3629 262.139 85.2826L267.331 80.0908C267.493 79.9285 267.584 79.7084 267.584 79.479C267.584 79.2495 267.493 79.0294 267.331 78.8671L262.139 73.6753C262.059 73.595 261.963 73.5312 261.858 73.4877C261.754 73.4443 261.641 73.4219 261.527 73.4219C261.414 73.4219 261.301 73.4443 261.196 73.4877C261.091 73.5312 260.996 73.595 260.915 73.6753Z" fill="#E6E6E6"/>
<path d="M100.608 73.6753C100.689 73.7557 100.752 73.8511 100.796 73.956C100.839 74.061 100.862 74.1736 100.862 74.2872C100.862 74.4008 100.839 74.5133 100.796 74.6183C100.752 74.7233 100.689 74.8187 100.608 74.8991L96.8938 78.6137H106.054C106.283 78.6137 106.503 78.7048 106.665 78.8671C106.828 79.0294 106.919 79.2495 106.919 79.479C106.919 79.7085 106.828 79.9285 106.665 80.0908C106.503 80.2531 106.283 80.3443 106.054 80.3443H96.8938L100.608 84.0589C100.771 84.2211 100.862 84.4412 100.862 84.6707C100.862 84.9002 100.771 85.1203 100.608 85.2826C100.446 85.4449 100.226 85.536 99.9965 85.536C99.767 85.536 99.547 85.4449 99.3847 85.2826L94.1929 80.0908C94.0306 79.9285 93.9395 79.7085 93.9395 79.479C93.9395 79.2495 94.0306 79.0294 94.1929 78.8671L99.3847 73.6753C99.465 73.595 99.5604 73.5312 99.6654 73.4877C99.7704 73.4443 99.8829 73.4219 99.9965 73.4219C100.11 73.4219 100.223 73.4443 100.328 73.4877C100.433 73.5312 100.528 73.595 100.608 73.6753Z" fill="#E6E6E6"/>
<path d="M119.495 285.186C117.423 285.184 115.371 285.591 113.456 286.383C111.541 287.175 109.801 288.336 108.335 289.801C106.87 291.266 105.707 293.005 104.914 294.919C104.12 296.833 103.712 298.885 103.712 300.957C103.712 303.029 104.12 305.081 104.914 306.995C105.707 308.91 106.87 310.649 108.335 312.114C109.801 313.578 111.541 314.74 113.456 315.532C115.371 316.324 117.423 316.731 119.495 316.729H242.029C244.102 316.731 246.154 316.324 248.068 315.532C249.983 314.74 251.723 313.578 253.189 312.114C254.654 310.649 255.817 308.91 256.61 306.995C257.404 305.081 257.812 303.029 257.812 300.957C257.812 298.885 257.404 296.833 256.61 294.919C255.817 293.005 254.654 291.266 253.189 289.801C251.723 288.336 249.983 287.175 248.068 286.383C246.154 285.591 244.102 285.184 242.029 285.186H119.495Z" fill="#E6E6E6"/>
<path d="M25.3458 50.6916C20.3329 50.6916 15.4325 49.2051 11.2644 46.4201C7.09634 43.635 3.84771 39.6766 1.92935 35.0452C0.0109824 30.4139 -0.49095 25.3177 0.487024 20.4011C1.465 15.4845 3.87895 10.9683 7.42362 7.42362C10.9683 3.87895 15.4845 1.465 20.4011 0.487025C25.3177 -0.490948 30.4139 0.0109782 35.0452 1.92934C39.6766 3.84771 43.635 7.09635 46.4201 11.2644C49.2051 15.4325 50.6916 20.3329 50.6916 25.3458C50.684 32.0656 48.0112 38.508 43.2596 43.2596C38.508 48.0112 32.0656 50.684 25.3458 50.6916Z" fill="#6C63FF"/>
<path d="M35.3466 22.8456H27.846V15.345C27.846 14.6819 27.5826 14.0459 27.1137 13.577C26.6449 13.1081 26.0089 12.8447 25.3458 12.8447C24.6827 12.8447 24.0468 13.1081 23.5779 13.577C23.109 14.0459 22.8456 14.6819 22.8456 15.345V22.8456H15.3449C14.6818 22.8456 14.0459 23.109 13.577 23.5779C13.1081 24.0468 12.8447 24.6827 12.8447 25.3458C12.8447 26.0089 13.1081 26.6448 13.577 27.1137C14.0459 27.5826 14.6818 27.846 15.3449 27.846H22.8456V35.3466C22.8456 36.0097 23.109 36.6457 23.5779 37.1146C24.0468 37.5835 24.6827 37.8469 25.3458 37.8469C26.0089 37.8469 26.6449 37.5835 27.1137 37.1146C27.5826 36.6457 27.846 36.0097 27.846 35.3466V27.846H35.3466C36.0097 27.846 36.6456 27.5826 37.1145 27.1137C37.5834 26.6448 37.8468 26.0089 37.8468 25.3458C37.8468 24.6827 37.5834 24.0468 37.1145 23.5779C36.6456 23.109 36.0097 22.8456 35.3466 22.8456Z" fill="white"/>
</g>
<defs>
<clipPath id="clip0">
<rect width="573.545" height="499.035" fill="white"/>
</clipPath>
</defs>
</svg>
