<svg width="35" height="35" viewBox="0 0 50 50" fill="none" xmlns="http://www.w3.org/2000/svg">
<path d="M21.125 0.838867C9.477 0.838867 0 10.0938 0 21.4688C0 32.8438 9.477 42.0986 21.125 42.0986C32.773 42.0986 42.25 32.8438 42.25 21.4688C42.25 10.0938 32.773 0.838867 21.125 0.838867ZM21.125 4.0127C31.0164 4.0127 39 11.8092 39 21.4688C39 31.1283 31.0164 38.9248 21.125 38.9248C11.2336 38.9248 3.25 31.1283 3.25 21.4688C3.25 11.8092 11.2336 4.0127 21.125 4.0127ZM14.9825 13.1851L12.6425 15.4702L18.7915 21.4688L12.6457 27.4673L14.9858 29.7524L21.125 23.7491L27.2675 29.7477L29.6075 27.4673L23.4601 21.4688L29.6026 15.4702L27.2675 13.1851L21.125 19.1899L14.9825 13.1882V13.1851Z" fill="#B93200"/>
</svg>
